<?xml version="1.0" encoding="UTF-8"?>
<svg version="1.1" xmlns="http://www.w3.org/2000/svg" width="1440" height="1356">
<path d="M0 0 C4.09587998 3.75576274 7.78058197 7.65971591 11.25 12 C12.07242187 13.02351563 12.89484375 14.04703125 13.7421875 15.1015625 C34.50675198 41.74176287 46.90063903 76.35735804 42.7890625 110.3515625 C37.43031368 147.24415886 9.70056467 196.2082558 -20.296875 218.72265625 C-22.51728677 220.37752308 -24.75928943 221.97008829 -27.03515625 223.55078125 C-30.70293316 226.85969653 -32.42844771 230.33960148 -33.016119 235.20176506 C-33.11775499 237.73661004 -33.1212767 240.25406515 -33.09057617 242.79077148 C-33.09101425 243.74764359 -33.09145233 244.70451569 -33.09190369 245.69038391 C-33.08982374 248.83416578 -33.06652992 251.97740573 -33.04296875 255.12109375 C-33.03736998 257.30827035 -33.03310121 259.49545073 -33.03010559 261.68263245 C-33.018679 267.42510456 -32.98923046 273.16734723 -32.95599365 278.909729 C-32.92524572 284.77507422 -32.91159016 290.6404567 -32.89648438 296.50585938 C-32.8643588 308.00400678 -32.81318877 319.50198427 -32.75 331 C-32.42 331 -32.09 331 -31.75 331 C-31.75 332.98 -31.75 334.96 -31.75 337 C-28.72037807 337.44335931 -26.56306152 337.49401206 -23.8984375 335.875 C-18.09685868 331.13498667 -15.59433302 326.17216041 -14.75 318.6875 C-14.59273437 317.38039063 -14.43546875 316.07328125 -14.2734375 314.7265625 C-13.98908252 312.19170931 -13.71279707 309.656077 -13.43847656 307.12011719 C-10.52398294 280.3321193 -6.04727909 254.33960675 16.16821289 236.45581055 C18.17116433 234.97365147 20.19873139 233.53950378 22.25 232.125 C22.98911621 231.6103418 23.72823242 231.09568359 24.48974609 230.56542969 C31.55000778 225.70159322 38.7942179 221.22791362 46.25 217 C46.86053223 216.64953613 47.47106445 216.29907227 48.10009766 215.93798828 C64.84884618 206.38552035 84.49662981 197.28444512 104.19140625 201.65234375 C114.59040075 205.44415238 121.44407312 212.15634913 126.25 222 C134.18562001 239.58284434 131.8600335 263.31055848 125.48632812 281.13574219 C117.16380479 302.97987118 104.00570153 317.49513681 82.5 327.1875 C60.17795511 336.26430941 38.56899283 338.46350332 14.625 338 C10.40366821 337.91964227 6.18275124 337.86009683 1.9609375 337.8125 C1.0170517 337.78760498 0.07316589 337.76270996 -0.89932251 337.73706055 C-13.56029752 337.59749722 -21.25930047 342.73323839 -30.25 351.1875 C-33.46064059 354.79947066 -33.87655292 357.33841825 -33.87025452 362.04962158 C-33.87162918 362.84605072 -33.87300385 363.64247986 -33.87442017 364.46304321 C-33.87082489 365.32763153 -33.86722961 366.19221985 -33.86352539 367.08300781 C-33.86374443 368.45913742 -33.86374443 368.45913742 -33.8639679 369.86306763 C-33.86327166 372.89311087 -33.85549275 375.92309251 -33.84765625 378.953125 C-33.84579104 381.05491095 -33.84436762 383.15669734 -33.84336853 385.25848389 C-33.83955144 390.78883058 -33.82972801 396.31915099 -33.81866455 401.8494873 C-33.80843309 407.49340459 -33.80386719 413.13732612 -33.79882812 418.78125 C-33.78810505 429.85417821 -33.77103829 440.92708692 -33.75 452 C-31.86317505 452.02271973 -31.86317505 452.02271973 -29.93823242 452.04589844 C-29.23067307 452.05441833 -28.52311371 452.06293823 -27.79411316 452.07171631 C-21.08037081 451.83616926 -14.63456125 448.41186177 -9.75 444 C-9.09 444 -8.43 444 -7.75 444 C-7.47800781 443.4534375 -7.20601562 442.906875 -6.92578125 442.34375 C-6.09804476 440.69377692 -5.26126365 439.04832569 -4.41796875 437.40625 C-1.82547746 432.31703227 0.61513736 427.23665742 2.75 421.9375 C8.51975171 407.89655359 16.92380519 396.35058043 27.203125 385.23828125 C28.94588026 383.33255842 30.57102286 381.38651509 32.1875 379.375 C50.07987867 358.60618988 81.34330684 353.64740208 107.25 351 C155.77317161 348.46791033 155.77317161 348.46791033 173.31201172 362.66967773 C181.41040987 369.98082574 183.36338086 379.63155967 184.47265625 390.1015625 C185.60790384 415.66931256 171.68242282 436.1424924 155.56689453 454.49072266 C154.32838925 455.910159 153.11446064 457.35093285 151.90234375 458.79296875 C139.22682233 473.56989937 122.49552805 480.45989802 103.25 482 C87.16924222 482.64148983 70.94834237 482.91161604 55.25 479 C54.40646973 478.79068848 53.56293945 478.58137695 52.69384766 478.36572266 C36.50908999 474.23847801 22.21543075 468.65711694 8.08349609 459.69458008 C1.99240036 455.96733849 -3.1939132 454.04197441 -10.3449707 455.5456543 C-13.10909123 456.3461428 -15.79590092 457.26634056 -18.5 458.25 C-19.41910156 458.56324219 -20.33820313 458.87648438 -21.28515625 459.19921875 C-27.86801021 461.41615613 -27.86801021 461.41615613 -33.75 465 C-34.67804602 467.77848843 -34.88094031 470.34870891 -34.90148926 473.26394653 C-34.90983292 474.10797028 -34.91817657 474.95199402 -34.92677307 475.82159424 C-34.9330497 477.19792023 -34.9330497 477.19792023 -34.93945312 478.60205078 C-34.94774643 479.57477936 -34.95603973 480.54750793 -34.96458435 481.54971313 C-34.98197126 483.66025296 -34.99714178 485.77081194 -35.01036072 487.88138199 C-35.03139045 491.21759325 -35.05841138 494.55370788 -35.08703613 497.88986206 C-35.15686393 506.17306722 -35.21633823 514.45634096 -35.27606201 522.73962402 C-35.32693043 529.74239103 -35.38172733 536.74510532 -35.44187927 543.74779892 C-35.46851826 547.04165853 -35.48929108 550.3355229 -35.5098877 553.62942505 C-35.52648442 555.63853187 -35.54335571 557.64763646 -35.56054688 559.65673828 C-35.5668235 561.03913696 -35.5668235 561.03913696 -35.57322693 562.44946289 C-35.58157059 563.28784698 -35.58991425 564.12623108 -35.59851074 564.99002075 C-35.60366447 565.72041628 -35.60881821 566.45081181 -35.61412811 567.20334053 C-35.75 569 -35.75 569 -36.75 571 C-40.38 571 -44.01 571 -47.75 571 C-48.94822134 568.60355732 -48.86559963 567.15352968 -48.85006714 564.47871399 C-48.84710632 563.52686722 -48.84414551 562.57502045 -48.84109497 561.59432983 C-48.83278656 560.54653351 -48.82447815 559.49873718 -48.81591797 558.41918945 C-48.81124512 557.31823441 -48.80657227 556.21727936 -48.80175781 555.08296204 C-48.79123394 552.68535198 -48.77856438 550.28775063 -48.76403427 547.89016151 C-48.74208129 544.09491959 -48.72795656 540.29972712 -48.71633911 536.50444031 C-48.68268138 525.71097742 -48.64141114 514.91760203 -48.57861328 504.12426758 C-48.54032466 497.52786502 -48.51793374 490.93151893 -48.50430679 484.33501244 C-48.49625362 481.82042253 -48.48264635 479.30584403 -48.46337509 476.79131508 C-48.4368682 473.27003132 -48.42899996 469.74915443 -48.42529297 466.2277832 C-48.4129361 465.19010803 -48.40057922 464.15243286 -48.3878479 463.08331299 C-48.40397761 457.26718925 -48.94848812 453.13471481 -51.75 448 C-53.23367103 446.43911687 -53.23367103 446.43911687 -55 445.6015625 C-55.6084375 445.26769531 -56.216875 444.93382812 -56.84375 444.58984375 C-57.4728125 444.27144531 -58.101875 443.95304687 -58.75 443.625 C-59.3790625 443.28339844 -60.008125 442.94179688 -60.65625 442.58984375 C-65.9384057 439.75851877 -69.72953945 438.56282963 -75.75 439 C-78.32640511 440.0248367 -80.5846911 441.06294228 -83 442.375 C-83.6818335 442.72933105 -84.36366699 443.08366211 -85.06616211 443.44873047 C-87.30322227 444.61608978 -89.52769999 445.80479752 -91.75 447 C-124.02428434 464.3542173 -160.77831299 475.34565566 -197.75 467 C-202.23342151 465.62328308 -206.47997771 463.93502276 -210.75 462 C-212.15378906 461.36964844 -212.15378906 461.36964844 -213.5859375 460.7265625 C-221.51213321 456.79753139 -227.49596795 451.11329434 -233.75 445 C-234.47058594 444.34128906 -235.19117188 443.68257812 -235.93359375 443.00390625 C-251.1891362 428.730612 -264.61144324 404.93226905 -265.953125 383.80078125 C-266.12838548 370.75848059 -263.40100687 360.44533389 -254.55859375 350.546875 C-239.57746096 336.02263069 -219.71759652 336.52866988 -200.12890625 336.8125 C-166.02042595 337.63550661 -132.47432372 342.83247441 -107.19921875 367.48828125 C-94.08267541 381.25759191 -84.27016849 398.64989773 -76.61450195 415.96069336 C-72.2453323 425.79321159 -68.25785196 431.41259745 -57.9375 435.5 C-53.88396494 436.96438159 -53.88396494 436.96438159 -49.75 436 C-48.05631789 432.61263577 -48.54122794 428.75665569 -48.49707031 425.02734375 C-48.4749926 423.63185555 -48.4749926 423.63185555 -48.45246887 422.20817566 C-48.4054191 419.11800208 -48.36611937 416.0277975 -48.328125 412.9375 C-48.31426506 411.8816571 -48.30040512 410.82581421 -48.28612518 409.73797607 C-48.21278541 404.14389413 -48.14525104 398.54977703 -48.08251953 392.95556641 C-48.0168063 387.18991425 -47.93216747 381.42470753 -47.8429451 375.65937805 C-47.77760493 371.2172043 -47.72624584 366.77494568 -47.67861176 362.33255005 C-47.6534551 360.20835645 -47.62313477 358.08421722 -47.58744049 355.96017456 C-47.53864586 352.97601538 -47.50971523 349.9922581 -47.48535156 347.0078125 C-47.46678604 346.13988571 -47.44822052 345.27195892 -47.42909241 344.37773132 C-47.40132634 336.30625784 -49.04565062 328.04535758 -54.09375 321.53515625 C-59.931302 316.1244064 -67.65488787 313.73902761 -75.4609375 313.83984375 C-78.84160608 314.07637517 -82.09441163 314.74780004 -85.41137695 315.42358398 C-116.23575239 321.68283834 -149.23857422 317.86539735 -176.75 302 C-195.83719248 289.35131025 -204.9069332 265.74726819 -209.359375 244.02734375 C-211.32450081 228.79761875 -209.71788083 213.85463731 -200.75 201 C-195.72530187 195.30950336 -189.9452776 191.63710782 -182.30126953 190.69970703 C-179.60955913 190.56077019 -176.9451129 190.53206141 -174.25 190.5625 C-172.79424561 190.5771228 -172.79424561 190.5771228 -171.30908203 190.59204102 C-154.82243127 190.99352376 -141.39609182 196.91863442 -126.75 204 C-125.79593262 204.45391113 -124.84186523 204.90782227 -123.85888672 205.37548828 C-120.91928269 206.77707983 -117.98943973 208.19717019 -115.0625 209.625 C-114.16644043 210.05562744 -113.27038086 210.48625488 -112.34716797 210.92993164 C-106.20846922 213.98089824 -101.04086156 217.66236132 -95.75 222 C-94.2340625 223.11375 -94.2340625 223.11375 -92.6875 224.25 C-76.87656713 237.74607253 -67.23392589 265.69824738 -65.58447266 286.04150391 C-65.3800061 289.46573114 -65.23931831 292.87856493 -65.15625 296.30859375 C-64.54938074 301.82293461 -63.26638147 305.61655539 -59.12109375 309.3984375 C-58.15300781 310.05070312 -57.18492187 310.70296875 -56.1875 311.375 C-55.21683594 312.04273438 -54.24617187 312.71046875 -53.24609375 313.3984375 C-50.87843919 314.98020387 -50.87843919 314.98020387 -48.75 316 C-47.48613226 312.10166439 -47.58769467 308.18177866 -47.57299805 304.12963867 C-47.56314125 302.94593941 -47.56314125 302.94593941 -47.55308533 301.73832703 C-47.53340406 299.13153989 -47.52170191 296.5248102 -47.51171875 293.91796875 C-47.50764322 293.02570398 -47.5035677 292.13343922 -47.49936867 291.21413612 C-47.47853099 286.49228778 -47.46421875 281.77046832 -47.45483398 277.04858398 C-47.44376822 272.17954594 -47.40935986 267.3109647 -47.36966228 262.44208813 C-47.34348357 258.69048733 -47.33514109 254.93899527 -47.33155251 251.18731117 C-47.3266906 249.39281437 -47.31508791 247.59832229 -47.29651451 245.80391502 C-47.27209353 243.28842563 -47.27309302 240.77411725 -47.2800293 238.25854492 C-47.26721924 237.52323547 -47.25440918 236.78792603 -47.24121094 236.03033447 C-47.30813468 229.34354165 -49.65972438 225.32136136 -54.08203125 220.41015625 C-54.90058594 219.63542969 -55.71914063 218.86070312 -56.5625 218.0625 C-60.20058035 214.53595204 -63.62930155 210.96027336 -66.91796875 207.109375 C-69.07715141 204.62332247 -71.3211348 202.22466908 -73.5625 199.8125 C-98.48791859 172.32676651 -121.90711741 131.4863814 -120.234375 93.20703125 C-117.89374267 62.2645811 -104.50444514 28.53631737 -82.75 6 C-82.09 6 -81.43 6 -80.75 6 C-80.523125 5.43023437 -80.29625 4.86046875 -80.0625 4.2734375 C-74.06793689 -6.11000218 -58.80476031 -13.38413291 -47.75 -17 C-29.12464483 -21.4838818 -13.526415 -11.62997506 0 0 Z " fill="#283B33" transform="translate(789.75,330)"/>
<path d="M0 0 C5.15472665 4.34930061 10.10824877 8.85823373 15 13.5 C16.50237543 14.91951296 18.00498418 16.33877902 19.5078125 17.7578125 C20.25836914 18.46711914 21.00892578 19.17642578 21.78222656 19.90722656 C31.10084722 28.70062333 40.48730576 37.41682058 50 46 C49.09827532 47.17825358 48.17798498 48.34231577 47.25 49.5 C46.48429687 50.47453125 46.48429687 50.47453125 45.703125 51.46875 C44 53 44 53 40 53 C38.32763672 51.85766602 38.32763672 51.85766602 36.6796875 50.25390625 C36.06617432 49.66754395 35.45266113 49.08118164 34.82055664 48.47705078 C34.17852295 47.84524902 33.53648926 47.21344727 32.875 46.5625 C31.53844341 45.27923618 30.20120165 43.99668561 28.86328125 42.71484375 C28.20924316 42.08304199 27.55520508 41.45124023 26.88134766 40.80029297 C24.32290047 38.35207216 21.70227671 35.98531537 19.0625 33.625 C18.26972656 32.91601562 17.47695312 32.20703125 16.66015625 31.4765625 C16.11230469 30.98929688 15.56445312 30.50203125 15 30 C14.67 30.66 14.34 31.32 14 32 C14.72919112 34.27895841 14.72919112 34.27895841 15.90625 36.83203125 C16.32003906 37.79560547 16.73382812 38.75917969 17.16015625 39.75195312 C18.04908227 41.78248822 18.94227367 43.81116168 19.83984375 45.83789062 C20.25363281 46.80533203 20.66742187 47.77277344 21.09375 48.76953125 C21.48240234 49.65229736 21.87105469 50.53506348 22.27148438 51.44458008 C23.11779925 54.41320534 22.90522742 56.07311856 22 59 C20.4375 61.3125 20.4375 61.3125 19 63 C9.0301572 61.36559954 -0.42196248 58.13564949 -10 55 C-10.33 55.33 -10.66 55.66 -11 56 C-6.56138868 60.54485468 -2.04642324 64.91552712 2.76953125 69.05859375 C7.250602 72.95893029 11.61425629 76.99317164 16 81 C15.21007484 85.24925258 13.15346563 87.08910865 10 90 C6.75248965 88.55504034 4.42756822 86.77253157 1.8125 84.375 C0.49765625 83.17037109 0.49765625 83.17037109 -0.84375 81.94140625 C-6.11770972 77.0399886 -11.35508359 72.09945097 -16.58984375 67.15625 C-21.40132084 62.61531903 -26.24072214 58.10463405 -31.09057617 53.60473633 C-34.46322053 50.46713927 -37.76402231 47.27855635 -41 44 C-38.69 41.36 -36.38 38.72 -34 36 C-24.40466108 38.26347728 -15.10792463 41.11859679 -5.75 44.1875 C-4.31131928 44.65597183 -2.87251784 45.12407308 -1.43359375 45.59179688 C2.04566887 46.72360859 5.52328538 47.86038179 9 49 C7.20389218 44.71314646 5.40741075 40.42644974 3.6105957 36.13989258 C3.00046905 34.68420558 2.39044125 33.22847714 1.78051758 31.77270508 C0.89951687 29.66997322 0.01815071 27.56739486 -0.86328125 25.46484375 C-1.13215652 24.82288559 -1.4010318 24.18092743 -1.67805481 23.51951599 C-3.24185445 19.78246568 -3.24185445 19.78246568 -4.86019897 16.06887817 C-6.99366245 11.25983974 -6.99366245 11.25983974 -7.0625 8.4375 C-5.4649336 4.77249474 -2.94103324 2.69073254 0 0 Z M12 27 C12 27.66 12 28.32 12 29 C12.66 28.67 13.32 28.34 14 28 C13.34 27.67 12.68 27.34 12 27 Z " fill="#2A3B35" transform="translate(1152,941)"/>
<path d="M0 0 C13.40508449 -0.12174143 26.78889422 0.04022861 40.1875 0.4375 C40.88479218 0.45714813 41.58208435 0.47679626 42.30050659 0.49703979 C50.89315021 0.74292677 59.44106813 1.17692868 68 2 C68.59085335 5.81411611 68.78900362 9.2043057 68 13 C65.2958413 16.00951682 61.97476583 17.54455876 58.375 19.3125 C56.36743964 20.39146847 54.36230195 21.47495451 52.359375 22.5625 C51.31716797 23.11550781 50.27496094 23.66851563 49.20117188 24.23828125 C43.85208458 27.18207426 38.74901451 30.49723613 33.625 33.8125 C28.860625 36.8753125 28.860625 36.8753125 24 40 C38.19 40.66 52.38 41.32 67 42 C67 45.96 67 49.92 67 54 C44.56 53.34 22.12 52.68 -1 52 C-1 48.37 -1 44.74 -1 41 C1.82616892 38.29254996 3.70099266 36.93913583 7.0625 35.1875 C8.78926193 34.19696216 10.51581466 33.20605957 12.2421875 32.21484375 C13.16741211 31.7029248 14.09263672 31.19100586 15.04589844 30.66357422 C20.35021388 27.67649939 25.50361782 24.43986329 30.6875 21.25 C32.66949977 20.04510794 34.65248188 18.8418294 36.63671875 17.640625 C37.90068481 16.87540527 37.90068481 16.87540527 39.19018555 16.09472656 C39.78742432 15.7334668 40.38466309 15.37220703 41 15 C38.13514566 12.13514566 36.05930459 12.69921939 32.05078125 12.62109375 C31.35993942 12.60409927 30.6690976 12.5871048 29.95732117 12.56959534 C27.74247457 12.51641256 25.52764302 12.4762103 23.3125 12.4375 C21.11531399 12.39332939 18.91826119 12.34630648 16.72123718 12.29469299 C14.7144319 12.24842579 12.70743343 12.21077605 10.70043945 12.17358398 C7.05155906 12.00241858 3.60174858 11.57717534 0 11 C0 7.37 0 3.74 0 0 Z " fill="#293A35" transform="translate(1272,597)"/>
<path d="M0 0 C4.10811765 2.38320821 7.42504954 5.25744969 9.75 9.4375 C10.47510252 12.45315817 10.73595463 15.34049652 10.75 18.4375 C11.3584375 18.31632813 11.966875 18.19515625 12.59375 18.0703125 C18.39593502 16.96107125 24.20438022 16.05968148 30.0625 15.3125 C30.73152344 15.22500488 31.40054687 15.13750977 32.08984375 15.04736328 C36.0009695 14.56334199 39.8105498 14.35199255 43.75 14.4375 C43.27309796 16.06316606 42.79340334 17.68801311 42.3125 19.3125 C42.04566406 20.21742188 41.77882813 21.12234375 41.50390625 22.0546875 C40.75 24.4375 40.75 24.4375 39.75 26.4375 C37.34375 27.03515625 37.34375 27.03515625 34.25 27.5 C32.61611328 27.74556641 32.61611328 27.74556641 30.94921875 27.99609375 C29.36560547 28.21458984 29.36560547 28.21458984 27.75 28.4375 C26.93144531 28.55222656 26.11289063 28.66695312 25.26953125 28.78515625 C20.071606 29.43834686 14.98688165 29.52062511 9.75 29.4375 C9.42 30.4275 9.09 31.4175 8.75 32.4375 C8.09 33.4275 7.43 34.4175 6.75 35.4375 C6.09 37.0875 5.43 38.7375 4.75 40.4375 C13.33 43.7375 21.91 47.0375 30.75 50.4375 C29.43 54.0675 28.11 57.6975 26.75 61.4375 C19.0145571 59.21253738 11.49933352 56.58576868 3.9609375 53.76953125 C2.77650055 53.32985519 1.5920636 52.89017914 0.37173462 52.43717957 C-2.74268345 51.2804431 -5.85607915 50.12103619 -8.96899414 48.96026611 C-12.15946691 47.7713481 -15.35127707 46.58603165 -18.54296875 45.40039062 C-24.77986912 43.08270559 -31.01544432 40.76148434 -37.25 38.4375 C-36.78360486 36.87169075 -36.31630237 35.30615175 -35.84863281 33.74072266 C-35.58850403 32.86888336 -35.32837524 31.99704407 -35.06036377 31.0987854 C-27.62552842 6.68232021 -27.62552842 6.68232021 -17.4375 -0.5625 C-11.50582971 -2.42341617 -5.74723933 -2.55432859 0 0 Z M-15.25 11.4375 C-19.72360918 16.72449267 -23.25 24.47330315 -23.25 31.4375 C-20.64985473 32.46977862 -18.04573631 33.48855152 -15.4375 34.5 C-14.69951172 34.79455078 -13.96152344 35.08910156 -13.20117188 35.39257812 C-8.80615699 37.2072456 -8.80615699 37.2072456 -4.25 36.4375 C-2.76108059 33.40428624 -2.76108059 33.40428624 -1.5625 29.75 C-1.12550781 28.52925781 -0.68851563 27.30851563 -0.23828125 26.05078125 C0.89707927 21.89975959 1.2633075 18.43369583 0.1875 14.25 C-2.06316496 11.41220505 -4.90577599 10.63186572 -8.25 9.4375 C-11.08191371 9.4375 -12.72937802 10.1171742 -15.25 11.4375 Z " fill="#2A3A35" transform="translate(1268.25,772.5625)"/>
<path d="M0 0 C5.32830563 4.94771237 9.44505219 8.9644972 10.625 16.4375 C10.51932532 23.09500479 8.48165039 27.08657547 4.625 32.4375 C5.18815918 32.696521 5.75131836 32.95554199 6.33154297 33.22241211 C8.87177534 34.56824312 11.03212714 36.13881257 13.3203125 37.87890625 C14.20074219 38.54470703 15.08117187 39.21050781 15.98828125 39.89648438 C16.89964844 40.59064453 17.81101562 41.28480469 18.75 42 C20.56404039 43.37770389 22.3790944 44.75407449 24.1953125 46.12890625 C24.99727051 46.73935791 25.79922852 47.34980957 26.62548828 47.97875977 C28.55711032 49.47266569 28.55711032 49.47266569 30.625 50.4375 C30.625 51.0975 30.625 51.7575 30.625 52.4375 C29.0524835 53.33179374 27.46646259 54.20237427 25.875 55.0625 C24.99328125 55.54976562 24.1115625 56.03703125 23.203125 56.5390625 C20.625 57.4375 20.625 57.4375 18.6875 56.8828125 C15.85239233 54.89608932 13.09614771 52.82593968 10.375 50.6875 C9.79943359 50.24301514 9.22386719 49.79853027 8.63085938 49.34057617 C6.11447154 47.39644769 3.62331251 45.4361054 1.171875 43.41015625 C-2.46967216 40.27338563 -2.46967216 40.27338563 -7 39.4375 C-8.175625 39.9325 -8.175625 39.9325 -9.375 40.4375 C-11.37250788 41.11159695 -13.37227347 41.77906936 -15.375 42.4375 C-15.01148438 43.18435059 -14.64796875 43.93120117 -14.2734375 44.70068359 C-12.63658638 48.06934419 -11.00572344 51.44086911 -9.375 54.8125 C-8.80265625 55.988125 -8.2303125 57.16375 -7.640625 58.375 C-7.09921875 59.49648437 -6.5578125 60.61796875 -6 61.7734375 C-5.49726563 62.81032715 -4.99453125 63.8472168 -4.4765625 64.91552734 C-3.375 67.4375 -3.375 67.4375 -3.375 69.4375 C-6.675 70.7575 -9.975 72.0775 -13.375 73.4375 C-19.15984928 62.9452089 -24.42392657 52.24336306 -29.5390625 41.41015625 C-31.43352844 37.39838468 -33.36721003 33.40943432 -35.3359375 29.43359375 C-35.80467285 28.47791504 -36.2734082 27.52223633 -36.75634766 26.53759766 C-37.65053956 24.71635557 -38.55350409 22.8993874 -39.46630859 21.08740234 C-39.86414551 20.27094238 -40.26198242 19.45448242 -40.671875 18.61328125 C-41.20312988 17.54460815 -41.20312988 17.54460815 -41.74511719 16.4543457 C-42.54044459 13.9077567 -42.55098993 12.84466631 -41.375 10.4375 C-37.54505673 7.85802653 -33.25537727 6.10607985 -29.0625 4.1875 C-27.92748047 3.63320312 -26.79246094 3.07890625 -25.62304688 2.5078125 C-17.26208507 -1.36503461 -8.77955487 -4.06460874 0 0 Z M-28.375 16.4375 C-27.60693755 18.31363675 -26.83541323 20.18835642 -26.0625 22.0625 C-25.41861328 23.62871094 -25.41861328 23.62871094 -24.76171875 25.2265625 C-23.40812885 28.36079038 -21.93061716 31.39925652 -20.375 34.4375 C-17.76702649 33.17402837 -15.16376593 31.90214776 -12.5625 30.625 C-11.45551758 30.09036133 -11.45551758 30.09036133 -10.32617188 29.54492188 C-9.61396484 29.19365234 -8.90175781 28.84238281 -8.16796875 28.48046875 C-7.18606567 28.00130005 -7.18606567 28.00130005 -6.18432617 27.51245117 C-4.23238755 26.35277154 -2.85364036 25.1569467 -1.375 23.4375 C-0.34093305 18.83590208 -0.8008299 15.34505919 -3.3125 11.375 C-6.75988096 9.19400388 -8.66262135 8.60637208 -12.68359375 8.796875 C-18.38417795 10.15376297 -23.40511707 13.42638082 -28.375 16.4375 Z " fill="#293A35" transform="translate(514.375,72.5625)"/>
<path d="M0 0 C6.06966995 5.47265324 8.45414087 12.64636232 9.125 20.5625 C8.99790888 26.68598146 6.99876525 32.23963737 3.08203125 36.9609375 C-6.99589897 46.49574574 -23.40141366 47.91060708 -36.75 48.3125 C-44.72870318 48.08427622 -49.38550525 45.96619809 -55 40.375 C-59.59851701 34.69013608 -61.37612396 28.14123026 -61.0546875 20.87109375 C-59.82160807 12.63188118 -56.37125582 7.33356583 -50.00390625 2.06640625 C-47.48368066 0.41335506 -45.16668976 0.02032633 -42.1875 -0.125 C-41.8575 3.505 -41.5275 7.135 -41.1875 10.875 C-42.13625 11.4525 -43.085 12.03 -44.0625 12.625 C-47.11972902 14.8262049 -47.89111954 15.53620881 -49.1875 18.875 C-49.91434721 23.52344143 -49.57885123 27.04714164 -47.5625 31.3125 C-44.73762699 34.3603893 -43.21168649 34.92922345 -39.1875 35.875 C-36.27443979 35.89834758 -33.44766895 35.56884832 -30.5625 35.1875 C-29.77214355 35.09082031 -28.98178711 34.99414062 -28.16748047 34.89453125 C-16.16648366 33.49136746 -16.16648366 33.49136746 -5.1875 28.875 C-2.29783135 24.60929866 -2.66573678 19.82773705 -3.1875 14.875 C-4.43329495 11.88509212 -5.37770892 10.48234331 -7.9375 8.5625 C-11.67969953 7.41905014 -15.63620378 7.09935189 -19.1875 8.875 C-19.1875 13.165 -19.1875 17.455 -19.1875 21.875 C-22.4875 22.205 -25.7875 22.535 -29.1875 22.875 C-31.37767922 14.7400486 -33.4041784 6.34093478 -33.1875 -2.125 C-21.2522701 -5.70556897 -10.78591466 -7.19060977 0 0 Z M-21.1875 8.875 C-21.1875 10.525 -21.1875 12.175 -21.1875 13.875 C-20.8575 13.875 -20.5275 13.875 -20.1875 13.875 C-20.1875 12.225 -20.1875 10.575 -20.1875 8.875 C-20.5175 8.875 -20.8475 8.875 -21.1875 8.875 Z " fill="#2A3A35" transform="translate(1324.1875,493.125)"/>
<path d="M0 0 C7.41855278 3.82208086 11.79084106 7.85992224 14.6015625 15.84765625 C15.95675386 21.12963702 15.57173557 26.0880577 14.25 31.375 C6.13679245 28.92216981 6.13679245 28.92216981 3.25 26.375 C3.125 22.5 3.125 22.5 3.2578125 20.37109375 C3.24597917 17.34767868 2.10548269 15.69435337 0.25 13.375 C-2.82698914 10.40411393 -5.48495496 9.54225667 -9.75 9.375 C-15.64435356 10.84858839 -18.06715741 13.3762059 -21.19921875 18.4921875 C-28.64475273 31.74401985 -28.64475273 31.74401985 -30.75 46.375 C-28.95882468 50.52298495 -26.91507424 52.6164131 -22.75 54.375 C-18.83687595 54.95442811 -15.69682659 54.74081936 -12 53.3125 C-8.95015931 50.68624829 -7.57414392 47.95572696 -5.75 44.375 C-9.38 42.395 -13.01 40.415 -16.75 38.375 C-15.99872886 34.61864431 -15.50994274 32.54289693 -13.75 29.375 C-10.27401836 29.95477557 -7.45895302 30.84021105 -4.32421875 32.44140625 C-3.13022461 33.0456543 -3.13022461 33.0456543 -1.91210938 33.66210938 C-1.09548828 34.08298828 -0.27886719 34.50386719 0.5625 34.9375 C1.39845703 35.36224609 2.23441406 35.78699219 3.09570312 36.22460938 C5.14996426 37.2693479 7.20120292 38.31959762 9.25 39.375 C6.68285669 47.63609151 2.97211241 55.71427376 -3.75 61.375 C-4.678125 62.2103125 -4.678125 62.2103125 -5.625 63.0625 C-12.03412088 67.02107466 -18.54697419 66.92501821 -25.75 65.375 C-32.93143417 62.66650918 -38.58044248 57.97777655 -41.875 50.98828125 C-45.11856869 41.30101582 -41.96516304 33.06040633 -37.7421875 24.3515625 C-37.07839547 23.0259062 -36.41434015 21.7003817 -35.75 20.375 C-35.16853836 19.15399438 -34.58777905 17.93265398 -34.0078125 16.7109375 C-30.22093672 9.1197349 -26.16735507 2.96095428 -18.3359375 -0.77734375 C-12.29551854 -2.75736024 -5.86195977 -2.40902456 0 0 Z " fill="#293B35" transform="translate(1005.75,73.625)"/>
<path d="M0 0 C22.68519155 12.4872614 22.68519155 12.4872614 26.99438477 23.40917969 C28.10625361 32.04664505 27.18022734 39.30357808 21.99438477 46.40917969 C16.75012358 52.09751138 11.57263459 55.61006584 3.68188477 56.03417969 C-9.10645196 55.79852238 -22.40830183 46.28736925 -32.00561523 38.40917969 C-37.22356098 32.95138041 -39.61497243 27.92496488 -40.44311523 20.47167969 C-40.08541803 12.85571011 -36.01840931 6.55994204 -30.91186523 1.13964844 C-21.14063402 -7.73054711 -10.80923851 -5.70129591 0 0 Z M-26.27124023 10.92089844 C-28.91669061 15.06605836 -29.72751014 18.44615223 -29.00561523 23.40917969 C-25.05523703 32.02818668 -15.26841928 36.41878696 -7.31811523 40.84667969 C-6.700896 41.20101074 -6.08367676 41.5553418 -5.44775391 41.92041016 C-0.52716343 44.57021151 3.67612947 45.3432071 9.10375977 43.81542969 C13.28295698 41.50692075 15.31861009 39.17772433 16.67407227 34.55371094 C17.24766278 30.71345248 16.81890174 27.84929947 14.99438477 24.40917969 C8.72551069 16.59935332 -3.63126771 9.59974709 -13.00561523 6.40917969 C-18.25756833 5.85046127 -22.73234485 6.69388451 -26.27124023 10.92089844 Z " fill="#293B35" transform="translate(1231.005615234375,870.5908203125)"/>
<path d="M0 0 C5.2967183 3.129879 8.28774627 8.17833733 10 14 C10.86254175 22.29765168 9.17158103 29.69311089 6.875 37.625 C6.44960938 39.22601563 6.44960938 39.22601563 6.015625 40.859375 C3.32593737 50.37853035 -0.29463945 58.04991197 -9.0703125 63.125 C-15.50003193 66.04050031 -21.88876453 65.57979792 -28.5 63.5625 C-35.6274929 60.77692906 -40.16715871 55.74205097 -43.5 48.9375 C-44.63158208 42.2894553 -43.922405 36.33729471 -42.3125 29.875 C-42.04348877 28.77792725 -42.04348877 28.77792725 -41.76904297 27.65869141 C-35.91131512 4.50385114 -35.91131512 4.50385114 -27.00390625 -1.30078125 C-17.86145084 -6.04312443 -8.72829976 -5.05322618 0 0 Z M-23.5234375 10.15625 C-25.68719392 12.85808342 -26.54811581 15.92928365 -27.5625 19.1875 C-27.77865967 19.86659424 -27.99481934 20.54568848 -28.2175293 21.24536133 C-28.82132613 23.16056171 -29.41113982 25.08015448 -30 27 C-30.25265625 27.7734375 -30.5053125 28.546875 -30.765625 29.34375 C-32.51629645 35.24601373 -33.83814459 43.38521009 -30.94921875 49.06640625 C-28.60298667 51.93863727 -26.5349993 53.80674469 -22.828125 54.2734375 C-21.97734375 54.30695313 -21.1265625 54.34046875 -20.25 54.375 C-19.40953125 54.42398438 -18.5690625 54.47296875 -17.703125 54.5234375 C-13.85786053 53.77883426 -11.44444178 51.95656025 -9 49 C-7.54821814 46.20084042 -6.63457748 43.33290156 -5.75 40.3125 C-5.50113037 39.5095752 -5.25226074 38.70665039 -4.99584961 37.87939453 C-1.12861885 25.60451487 -1.12861885 25.60451487 -2 13 C-4.8623508 9.34255175 -7.52305825 7.26272716 -12 6 C-16.76292886 6 -19.73298921 7.27939694 -23.5234375 10.15625 Z " fill="#293A35" transform="translate(912,39)"/>
<path d="M0 0 C1.31626692 3.61973402 2 6.09567131 2 10 C-1.87331379 11.15158634 -5.74892571 12.29524281 -9.625 13.4375 C-10.71941406 13.76298828 -11.81382812 14.08847656 -12.94140625 14.42382812 C-14.00488281 14.73642578 -15.06835938 15.04902344 -16.1640625 15.37109375 C-17.13811035 15.65911865 -18.1121582 15.94714355 -19.11572266 16.24389648 C-22.03577982 17.00937956 -25.0223484 17.50372473 -28 18 C-26.68 22.62 -25.36 27.24 -24 32 C-16.58380868 33.53438441 -11.3033999 32.23597687 -4.13671875 29.91015625 C-1 29 -1 29 3 29 C4.73734147 32.80043446 5 34.59714577 5 39 C-7.375 42.465 -7.375 42.465 -20 46 C-18.68 50.95 -17.36 55.9 -16 61 C-9.33827991 61.27204235 -4.07390487 60.45793402 2.25 58.4375 C11.49695849 55.49598414 11.49695849 55.49598414 16 57 C16.66 59.97 17.32 62.94 18 66 C12.34090171 67.56982096 6.68089819 69.13631834 1.02001953 70.69970703 C-0.90666719 71.23231616 -2.8331008 71.76584175 -4.75927734 72.30029297 C-7.52375735 73.06717651 -10.28912303 73.83078791 -13.0546875 74.59375 C-13.9193161 74.83436157 -14.7839447 75.07497314 -15.67477417 75.32287598 C-16.87579269 75.65321838 -16.87579269 75.65321838 -18.10107422 75.99023438 C-18.8072287 76.18564819 -19.51338318 76.38106201 -20.24093628 76.58239746 C-22 77 -22 77 -24 77 C-28.22741578 62.83363644 -32.25202669 48.61373819 -36.1824646 34.36254883 C-36.68651493 32.5350022 -37.19142054 30.70769125 -37.69717407 28.88061523 C-38.41418976 26.2883571 -39.12760703 23.69513721 -39.83984375 21.1015625 C-40.05826935 20.31298859 -40.27669495 19.52441467 -40.5017395 18.71194458 C-42 13.2297616 -42 13.2297616 -42 11 C-18.56846649 4.09484439 -18.56846649 4.09484439 -9.1875 1.5625 C-8.04667969 1.25441406 -6.90585937 0.94632813 -5.73046875 0.62890625 C-3 0 -3 0 0 0 Z " fill="#2A3A35" transform="translate(615,31)"/>
<path d="M0 0 C1.20272819 2.40545638 1.10071472 3.94996953 1.0625 6.625 C1.05347656 7.44226563 1.04445313 8.25953125 1.03515625 9.1015625 C1.02355469 9.72804688 1.01195312 10.35453125 1 11 C-2.45760906 11.34113382 -5.91617586 11.67143391 -9.375 12 C-10.34050781 12.09539063 -11.30601562 12.19078125 -12.30078125 12.2890625 C-18.55559168 12.87676281 -24.718581 13.12414553 -31 13 C-30.67 13.66 -30.34 14.32 -30 15 C-29.60755085 17.70990437 -29.25459264 20.40652703 -28.9375 23.125 C-28.628125 25.72375 -28.31875 28.3225 -28 31 C-15.13 30.01 -15.13 30.01 -2 29 C-1 33 -1 33 -1 40 C-9.91 40.66 -18.82 41.32 -28 42 C-27.34 47.94 -26.68 53.88 -26 60 C-24.44410156 59.855625 -22.88820313 59.71125 -21.28515625 59.5625 C-19.21095653 59.37478962 -17.13673669 59.18730142 -15.0625 59 C-13.53012695 58.85691406 -13.53012695 58.85691406 -11.96679688 58.7109375 C-5.94822031 58.17253448 -0.04236648 57.89918888 6 58 C6 61.3 6 64.6 6 68 C2.50399832 69.16533389 -0.87422656 69.44322878 -4.51953125 69.75390625 C-5.25572189 69.81907944 -5.99191254 69.88425262 -6.75041199 69.95140076 C-8.30781958 70.08841751 -9.86538661 70.22363226 -11.4230957 70.35717773 C-13.7935708 70.56087341 -16.16338844 70.77119658 -18.53320312 70.98242188 C-20.04944444 71.11498115 -21.56571951 71.24715502 -23.08203125 71.37890625 C-23.78536087 71.44139053 -24.48869049 71.50387482 -25.21333313 71.56825256 C-29.15718014 71.90251604 -33.04399239 72.02320399 -37 72 C-37.7844978 63.72472537 -38.56698462 55.44926411 -39.34690857 47.17355728 C-39.70912548 43.33077987 -40.07203337 39.48807033 -40.43652344 35.64550781 C-40.78828358 31.93687703 -41.13822467 28.22807869 -41.48690796 24.51915741 C-41.62022196 23.10452919 -41.75419005 21.68996245 -41.88882446 20.27545929 C-42.07735677 18.29350425 -42.26334311 16.31130752 -42.44921875 14.32910156 C-42.55580811 13.20103088 -42.66239746 12.07296021 -42.7722168 10.91070557 C-43 8 -43 8 -43 4 C-33.60070415 2.71765775 -24.20065768 1.69679632 -14.75 0.875 C-13.75025146 0.78750488 -12.75050293 0.70000977 -11.72045898 0.60986328 C-7.78772721 0.27629085 -3.95092825 0 0 0 Z " fill="#293B35" transform="translate(719,16)"/>
<path d="M0 0 C0.99 3.63 1.98 7.26 3 11 C1.54712339 12.33927721 0.08752741 13.67126847 -1.375 15 C-2.18710938 15.7425 -2.99921875 16.485 -3.8359375 17.25 C-6 19 -6 19 -8 19 C-6.8809676 21.93980814 -5.75374851 24.87641013 -4.625 27.8125 C-4.14933594 29.06256836 -4.14933594 29.06256836 -3.6640625 30.33789062 C-3.3546875 31.14033203 -3.0453125 31.94277344 -2.7265625 32.76953125 C-2.44377441 33.50792236 -2.16098633 34.24631348 -1.86962891 35.00708008 C-0.96068804 37.24923849 -0.96068804 37.24923849 1 40 C1.33 40.66 1.66 41.32 2 42 C3.98567708 41.96744792 5.97135417 41.93489583 7.95703125 41.90234375 C10.82436414 42.03940555 13.28610064 43.09536688 16 44 C16.94921875 45.7421875 16.94921875 45.7421875 17.6875 47.875 C17.93886719 48.57367188 18.19023438 49.27234375 18.44921875 49.9921875 C19 52 19 52 19 55 C-5.09 55 -29.18 55 -54 55 C-54.66 52.03 -55.32 49.06 -56 46 C-51.0417622 41.45046727 -46.04424445 36.98409949 -40.8125 32.75 C-36.36147929 29.14530013 -32.00798913 25.44632555 -27.6875 21.6875 C-27.05908203 21.14077637 -26.43066406 20.59405273 -25.78320312 20.03076172 C-24.50220983 18.91593193 -23.22128574 17.80102262 -21.94042969 16.68603516 C-18.74007483 13.90525375 -15.52823475 11.13797019 -12.3125 8.375 C-11.73653076 7.87830811 -11.16056152 7.38161621 -10.56713867 6.86987305 C-2.56399251 0 -2.56399251 0 0 0 Z M-18 27 C-18.81791016 27.74443359 -18.81791016 27.74443359 -19.65234375 28.50390625 C-24.92524885 33.2540276 -30.34055321 37.71862182 -36 42 C-35.67 42.66 -35.34 43.32 -35 44 C-26.75 44 -18.5 44 -10 44 C-10.75867901 40.20660493 -11.61135283 36.87441437 -12.875 33.25 C-13.20242188 32.28578125 -13.52984375 31.3215625 -13.8671875 30.328125 C-14.42792969 29.17570312 -14.42792969 29.17570312 -15 28 C-15.99 27.67 -16.98 27.34 -18 27 Z " fill="#293B35" transform="translate(1294,375)"/>
<path d="M0 0 C0.495 2.97 0.495 2.97 1 6 C-8.41120246 13.08760902 -17.85607549 20.12667494 -27.35083008 27.10205078 C-32.255309 30.70656637 -37.13789301 34.33851548 -42 38 C-30.79032746 40.90741061 -19.54083903 43.41090291 -8.1875 45.6875 C-5.90036595 46.14820897 -3.61346155 46.60998914 -1.32698059 47.07392883 C0.07716289 47.35865161 1.48169624 47.64146069 2.88667297 47.92204285 C5.66486959 48.48383107 8.30697333 49.10232444 11 50 C11.495 52.97 11.495 52.97 12 56 C-3.27843645 59.641068 -18.57394194 63.18827133 -33.93411255 66.4694519 C-35.39100762 66.78069426 -36.84761439 67.09328934 -38.30392456 67.40725708 C-40.35013616 67.84757219 -42.39747468 68.28216308 -44.4453125 68.71484375 C-45.61594238 68.96355225 -46.78657227 69.21226074 -47.99267578 69.46850586 C-51 70 -51 70 -55 70 C-55.495 67.03 -55.495 67.03 -56 64 C-51.98429178 63.05628921 -47.96815772 62.11441638 -43.95166016 61.17407227 C-42.59217362 60.85553751 -41.23279427 60.53654484 -39.87353516 60.21704102 C-35.25213747 59.13096125 -30.62796063 58.05777454 -26 57 C-25.3455188 56.85000549 -24.6910376 56.70001099 -24.01672363 56.54547119 C-22.11937632 56.11370723 -20.21987063 55.69146235 -18.3203125 55.26953125 C-17.22219238 55.02436768 -16.12407227 54.7792041 -14.99267578 54.52661133 C-12.24891887 54.04380144 -9.77688302 53.89532742 -7 54 C-7 53.34 -7 52.68 -7 52 C-8.28648437 51.90847656 -9.57296875 51.81695313 -10.8984375 51.72265625 C-18.91569315 50.92093068 -26.75286168 49.10424205 -34.625 47.4375 C-36.2173485 47.10434217 -37.80979577 46.77165608 -39.40234375 46.43945312 C-43.26938926 45.63173548 -47.1350426 44.8176484 -51 44 C-51.33 41.69 -51.66 39.38 -52 37 C-40.49469469 28.10159298 -28.83764475 19.45127984 -17 11 C-27.51718978 12.60848158 -37.87037584 14.84615035 -48.25830078 17.11914062 C-50.44229592 17.59592495 -52.62732173 18.06773533 -54.8125 18.5390625 C-56.09769531 18.81959473 -57.38289062 19.10012695 -58.70703125 19.38916016 C-62 20 -62 20 -66 20 C-66.33 18.02 -66.66 16.04 -67 14 C-51.72156355 10.358932 -36.42605806 6.81172867 -21.06588745 3.5305481 C-19.60899238 3.21930574 -18.15238561 2.90671066 -16.69607544 2.59274292 C-14.64986384 2.15242781 -12.60252532 1.71783692 -10.5546875 1.28515625 C-9.38405762 1.03644775 -8.21342773 0.78773926 -7.00732422 0.53149414 C-4 0 -4 0 0 0 Z " fill="#293A35" transform="translate(232,689)"/>
<path d="M0 0 C1.9375 0.75 1.9375 0.75 4 2 C5.02897763 4.47077415 5.06985062 5.74408178 4.36097717 8.34124756 C3.82469948 9.63364349 3.82469948 9.63364349 3.27758789 10.95214844 C2.87709732 11.93286316 2.47660675 12.91357788 2.0639801 13.92401123 C1.62134323 14.97518127 1.17870636 16.02635132 0.72265625 17.109375 C0.2773204 18.19132141 -0.16801544 19.27326782 -0.62684631 20.38800049 C-2.05321191 23.8464599 -3.49512786 27.29818973 -4.9375 30.75 C-5.90662923 33.09202186 -6.87474114 35.43446495 -7.84179688 37.77734375 C-10.2160768 43.52317126 -12.60315986 49.26354955 -15 55 C-14.19594727 54.70343506 -13.39189453 54.40687012 -12.56347656 54.10131836 C-5.3523612 51.44369831 1.86273979 48.79740142 9.08322144 46.16532898 C13.16434182 44.67611664 17.23675551 43.16560048 21.3046875 41.640625 C23.07788079 40.98891849 24.85129891 40.3378232 26.625 39.6875 C27.42776367 39.37997803 28.23052734 39.07245605 29.05761719 38.75561523 C34.43302774 36.81305713 34.43302774 36.81305713 37.5234375 37.83203125 C38.01070313 38.21746094 38.49796875 38.60289062 39 39 C39 43 39 43 37.75 44.7199707 C37.1725 45.28288818 36.595 45.84580566 36 46.42578125 C35.36425049 47.05379639 34.72850098 47.68181152 34.07348633 48.32885742 C33.0471106 49.3107605 33.0471106 49.3107605 32 50.3125 C30.96105591 51.32824097 30.96105591 51.32824097 29.90112305 52.36450195 C26.04822801 56.10869888 22.12746181 59.73566946 18.01953125 63.19921875 C14.67970172 66.17728725 11.58211791 69.39809015 8.4387207 72.58081055 C4.9617352 76.08438444 1.38257976 79.40254124 -2.3828125 82.59765625 C-4.17956262 84.11608066 -4.17956262 84.11608066 -6.375 86.4375 C-8 88 -8 88 -10 88 C-11.625 85.5 -11.625 85.5 -13 83 C-9.5547403 79.45784237 -6.0768334 76.01652382 -2.3125 72.8125 C1.88379862 69.20400975 5.73503666 65.29413412 9.62084961 61.35961914 C13.25728243 57.69521824 17.0015342 54.27147202 21 51 C18.79977076 49.61094069 18.79977076 49.61094069 15.43994141 51.11157227 C13.90803432 51.67321924 12.37873906 52.24202101 10.8515625 52.81640625 C9.19025668 53.42164276 7.52879335 54.02644707 5.8671875 54.63085938 C3.24255851 55.59530481 0.61985969 56.56441758 -2 57.54174805 C-4.52399327 58.47993041 -7.05424576 59.39923988 -9.5859375 60.31640625 C-10.36834808 60.61422501 -11.15075867 60.91204376 -11.95687866 61.21888733 C-17.3168755 63.14413995 -17.3168755 63.14413995 -20.46337891 62.48022461 C-22 61 -22 61 -22.96264648 58.9387207 C-23.01909672 54.4975995 -21.33144554 51.0191759 -19.59765625 46.98046875 C-19.24110458 46.12189774 -18.88455292 45.26332672 -18.51719666 44.3787384 C-17.37780847 41.64304544 -16.22047052 38.91537206 -15.0625 36.1875 C-14.28591336 34.33188029 -13.51050847 32.47576555 -12.73632812 30.61914062 C-10.83787356 26.07357328 -8.92328759 21.53511277 -7 17 C-10.69594525 19.91126645 -14.02215869 22.94597133 -17.3125 26.3125 C-21.01129108 30.06567598 -24.79833482 33.62298983 -28.81640625 37.03125 C-32.35633458 40.22288485 -35.66059705 43.65569003 -38.96459961 47.08959961 C-40.27359697 48.42935168 -41.63312874 49.71934677 -43 51 C-43.66 51 -44.32 51 -45 51 C-46.625 48.5 -46.625 48.5 -48 46 C-34.23708031 32.06311082 -34.23708031 32.06311082 -28.0546875 26.8359375 C-24.70394455 23.84192764 -21.59122776 20.61108088 -18.43457031 17.41503906 C-15.00351133 13.95780544 -11.46777523 10.69405757 -7.7578125 7.53515625 C-5.03291666 5.15541388 -2.52562445 2.58876506 0 0 Z M22 48 C22.33 48.66 22.66 49.32 23 50 C23.33 49.34 23.66 48.68 24 48 C23.34 48 22.68 48 22 48 Z " fill="#293A35" transform="translate(349,947)"/>
<path d="M0 0 C1.65 0 3.3 0 5 0 C7.57930969 7.27818316 9.42004938 14.60474603 11.13671875 22.12890625 C11.56317436 23.97427223 11.56317436 23.97427223 11.99824524 25.85691833 C12.74605837 29.09639504 13.49011484 32.33668623 14.2322998 35.57745361 C14.99346844 38.89677347 15.75965273 42.21493497 16.52539062 45.53320312 C18.02150565 52.02108817 19.51267127 58.51009542 21 65 C18 67 18 67 15.61328125 66.9140625 C12.22338934 65.7283604 10.63361948 63.99104377 8.1875 61.375 C5.1961324 58.2553045 2.23109534 55.23705604 -1.0625 52.4375 C-4.83619257 49.21049931 -8.29193457 45.72464266 -11.77734375 42.19140625 C-14.42054549 39.58536728 -17.19709208 37.17828918 -20.015625 34.765625 C-22.89075185 32.20744127 -25.56171598 29.46265024 -28.23828125 26.69921875 C-30.09309306 24.80910864 -30.09309306 24.80910864 -33 23 C-31.48371573 33.68536032 -28.92157116 44.08853982 -26.375 54.5625 C-25.74421409 57.1610009 -25.11471287 59.75977768 -24.4894104 62.35960388 C-24.10317623 63.96526301 -23.71380242 65.57017102 -23.32089233 67.17420959 C-22.59557249 70.18781242 -22 72.8880461 -22 76 C-24.97 76.495 -24.97 76.495 -28 77 C-31.48337822 65.51344655 -34.26845678 53.87715707 -37.00146484 42.19287109 C-37.75537643 38.97706687 -38.52007122 35.76394309 -39.28515625 32.55078125 C-39.76888556 30.49234164 -40.25198155 28.43375308 -40.734375 26.375 C-40.96243835 25.42181885 -41.19050171 24.4686377 -41.42547607 23.48657227 C-42.48745382 18.90024809 -43.28572793 14.74505416 -43 10 C-39.25564031 9.6052798 -37.51187279 9.63885806 -34.38671875 11.84375 C-33.49597656 12.7203125 -32.60523438 13.596875 -31.6875 14.5 C-30.63414826 15.51565992 -29.5807607 16.53128271 -28.52734375 17.546875 C-27.96257324 18.10181641 -27.39780273 18.65675781 -26.81591797 19.22851562 C-24.21160924 21.76909967 -21.55358134 24.25081047 -18.89819336 26.73779297 C-16.73271293 28.76619275 -14.5725611 30.80011111 -12.4140625 32.8359375 C-11.68993164 33.51881836 -10.96580078 34.20169922 -10.21972656 34.90527344 C-8.72116718 36.31944408 -7.22313277 37.73417122 -5.72558594 39.14941406 C-3.52716059 41.22649468 -1.32625307 43.30091698 0.875 45.375 C1.54692383 46.01147461 2.21884766 46.64794922 2.91113281 47.30371094 C3.53600586 47.8918457 4.16087891 48.47998047 4.8046875 49.0859375 C5.35108887 49.6020459 5.89749023 50.1181543 6.46044922 50.64990234 C8.1678454 52.20690109 8.1678454 52.20690109 11 54 C10.84744247 53.36772995 10.69488495 52.7354599 10.53770447 52.08403015 C8.95478689 45.51673794 7.3831536 38.94681953 5.81811523 32.37524414 C5.23215481 29.9214232 4.64329789 27.46829208 4.05151367 25.01586914 C3.20253466 21.4954172 2.36392398 17.97263474 1.52734375 14.44921875 C1.25969711 13.34913986 0.99205048 12.24906097 0.71629333 11.11564636 C0.47596878 10.09481461 0.23564423 9.07398285 -0.01196289 8.0222168 C-0.22736221 7.12286911 -0.44276154 6.22352142 -0.66468811 5.29692078 C-1 3 -1 3 0 0 Z " fill="#293A35" transform="translate(887,1111)"/>
<path d="M0 0 C6.39916947 0.80235892 11.96110765 2.50814167 18 4.6875 C18.9590625 5.01427734 19.918125 5.34105469 20.90625 5.67773438 C28.14314318 8.27725026 33.52799676 11.4116082 37.9375 17.8125 C39.83857362 23.51572087 39.8980366 28.64068688 37.4375 34.1875 C34.38036444 39.63812248 29.68096097 43.48726726 24 46 C22.6757713 46.36784131 21.34386088 46.71202981 20 47 C19.68633961 57.83870913 20.63673731 68.2643063 22 79 C17.25 78.125 17.25 78.125 15 77 C14.42163086 74.62670898 14.42163086 74.62670898 13.96484375 71.49609375 C13.79533203 70.36236328 13.62582031 69.22863281 13.45117188 68.06054688 C13.28166016 66.86494141 13.11214844 65.66933594 12.9375 64.4375 C12.76412109 63.26896484 12.59074219 62.10042969 12.41210938 60.89648438 C11.53515653 54.93925298 10.71683689 48.97856742 10 43 C7.89828133 42.1605118 5.79353375 41.32860344 3.6875 40.5 C2.51574219 40.0359375 1.34398437 39.571875 0.13671875 39.09375 C-2.91846448 37.83537487 -2.91846448 37.83537487 -6 38 C-6.2673999 38.74685059 -6.5347998 39.49370117 -6.81030273 40.26318359 C-8.0180808 43.63425204 -9.22776589 47.00463303 -10.4375 50.375 C-10.85837891 51.550625 -11.27925781 52.72625 -11.71289062 53.9375 C-12.11572266 55.05898437 -12.51855469 56.18046875 -12.93359375 57.3359375 C-13.30540771 58.37282715 -13.67722168 59.4097168 -14.06030273 60.47802734 C-15 63 -15 63 -16 65 C-17.98 64.67 -19.96 64.34 -22 64 C-20.52875876 56.39389396 -18.11055685 49.34885926 -15.4296875 42.08984375 C-14.9885965 40.88179581 -14.54750549 39.67374786 -14.0930481 38.42909241 C-12.93083488 35.24625112 -11.76188733 32.06592586 -10.59143066 28.8861084 C-9.39404757 25.62936511 -8.20317314 22.37024398 -7.01171875 19.11132812 C-4.68077765 12.73856779 -2.34270031 6.3684466 0 0 Z M5 7 C1.30733771 14.79562039 -1.36498065 22.80336195 -4 31 C-0.01545747 32.70573479 3.98548582 34.36607333 8 36 C8.81984375 36.34160156 9.6396875 36.68320313 10.484375 37.03515625 C15.78610659 39.05620641 20.4953128 39.74226022 26 38 C30.1148249 34.93576869 31.9953955 32.02302248 33 27 C32.92898525 22.95215951 32.49385971 20.71524509 30.1875 17.375 C22.85959275 11.91499068 13.73473666 9.37693055 5 7 Z M18 47 C18 49.31 18 51.62 18 54 C18.33 54 18.66 54 19 54 C19 51.69 19 49.38 19 47 C18.67 47 18.34 47 18 47 Z " fill="#2A3A34" transform="translate(550,1092)"/>
<path d="M0 0 C7.74049499 0.62386405 15.30357563 1.84717107 22.9375 3.25 C24.13938965 3.46817383 25.3412793 3.68634766 26.57958984 3.91113281 C29.10109823 4.36982751 31.62225304 4.83046974 34.14306641 5.29296875 C38.01499545 6.00274888 41.88825089 6.70492164 45.76171875 7.40625 C48.21622778 7.85371738 50.67065779 8.30161852 53.125 8.75 C54.28636475 8.96043945 55.44772949 9.17087891 56.64428711 9.38769531 C57.71300049 9.58459961 58.78171387 9.78150391 59.8828125 9.984375 C60.82527832 10.15678711 61.76774414 10.32919922 62.73876953 10.50683594 C65 11 65 11 67 12 C66.35806233 18.47833012 65.39123204 24.80317739 64.125 31.1875 C63.96386719 32.05052734 63.80273438 32.91355469 63.63671875 33.80273438 C62.34550722 40.34387187 60.84467798 45.97975048 55.4375 50.3125 C54.83808594 50.80363281 54.23867187 51.29476562 53.62109375 51.80078125 C49.22472708 55.05303322 44.25686175 54.49727071 39 54 C33.55381205 52.48310873 30.15627587 49.61878622 26.91015625 45.07421875 C25.62205364 42.13867159 25.41587347 39.16315881 25 36 C24.03586182 36.30292969 23.07172363 36.60585938 22.07836914 36.91796875 C18.51371315 38.03756431 14.94847593 39.15529876 11.38305664 40.27246094 C9.83764893 40.75697593 8.29240102 41.24200094 6.74731445 41.72753906 C4.53117653 42.42385685 2.31447731 43.11836061 0.09765625 43.8125 C-0.5971434 44.03123779 -1.29194305 44.24997559 -2.00779724 44.4753418 C-6.88612829 46 -6.88612829 46 -8 46 C-7.9375 42.6875 -7.9375 42.6875 -7 39 C-1.13067574 35.88268255 5.40734553 34.22327452 11.75 32.3125 C13.31041016 31.83200195 13.31041016 31.83200195 14.90234375 31.34179688 C15.89878906 31.03951172 16.89523438 30.73722656 17.921875 30.42578125 C18.82518555 30.15161377 19.72849609 29.87744629 20.65917969 29.5949707 C23 29 23 29 26 29 C26.13277344 28.03578125 26.26554687 27.0715625 26.40234375 26.078125 C26.57894531 24.81484375 26.75554687 23.5515625 26.9375 22.25 C27.11152344 20.99703125 27.28554687 19.7440625 27.46484375 18.453125 C27.86049338 15.90017407 28.30446422 13.4813709 29 11 C28.42636719 10.97421875 27.85273438 10.9484375 27.26171875 10.921875 C17.65119718 10.28020133 8.37760147 8.08931017 -1 6 C-0.67 4.02 -0.34 2.04 0 0 Z M35 12 C34.34 15.155625 33.68 18.31125 33 21.5625 C32.79117188 22.5429126 32.58234375 23.5233252 32.3671875 24.53344727 C30.42483486 33.53486216 30.42483486 33.53486216 32.5625 42.25 C36.16080114 46.3096218 39.74825717 47.67832245 45.0625 48.4375 C48.96991506 47.85554457 50.98970562 46.54202637 54 44 C56.71591728 39.4261791 57.80546889 35.09955094 58.6875 29.9375 C58.81705078 29.24333984 58.94660156 28.54917969 59.08007812 27.83398438 C59.74792517 24.11312226 60 20.80997795 60 17 C51.75 15.35 43.5 13.7 35 12 Z " fill="#293A35" transform="translate(171,481)"/>
<path d="M0 0 C1.48555383 0.92734572 2.96327506 1.86724813 4.4375 2.8125 C5.67306641 3.59560547 5.67306641 3.59560547 6.93359375 4.39453125 C9 6 9 6 10 9 C9.65454102 11.58789062 9.65454102 11.58789062 9.00390625 14.65625 C8.77509766 15.76097656 8.54628906 16.86570313 8.31054688 18.00390625 C8.06369141 19.15761719 7.81683594 20.31132812 7.5625 21.5 C7.08214575 23.78072706 6.60416895 26.06195652 6.12890625 28.34375 C5.91306885 29.35630859 5.69723145 30.36886719 5.47485352 31.41210938 C4.90976126 34.05327363 4.90976126 34.05327363 5 37 C5.73114014 36.5654248 6.46228027 36.13084961 7.21557617 35.68310547 C9.93757837 34.07689743 12.66849288 32.48744757 15.40649414 30.90869141 C16.58870803 30.22253738 17.76716346 29.52986426 18.94165039 28.83056641 C20.63201899 27.82563691 22.33737336 26.84605094 24.04296875 25.8671875 C25.06414795 25.27019043 26.08532715 24.67319336 27.13745117 24.05810547 C30 23 30 23 32.6652832 23.69580078 C35.57704046 25.32234133 38.32258865 27.00750783 41 29 C41 29.66 41 30.32 41 31 C40.11183594 31.43828125 39.22367188 31.8765625 38.30859375 32.328125 C35.54778491 33.69379332 32.79809488 35.08006469 30.05078125 36.47265625 C26.4504868 38.29265671 22.81925746 40.03090402 19.16796875 41.74609375 C7.10866224 47.54045775 -1.10979791 52.35333582 -8 64 C-9.20218862 65.77501061 -10.4097652 67.54639567 -11.625 69.3125 C-12.42172222 70.5383958 -13.21568081 71.76613201 -14 73 C-18.43458973 71.6062718 -20.87378374 69.39417765 -24 66 C-23.58637207 65.44538086 -23.17274414 64.89076172 -22.74658203 64.31933594 C-20.86948392 61.79861615 -18.99720181 59.27435822 -17.125 56.75 C-16.14853516 55.44095703 -16.14853516 55.44095703 -15.15234375 54.10546875 C-14.52714844 53.26113281 -13.90195313 52.41679687 -13.2578125 51.546875 C-12.6817627 50.77182617 -12.10571289 49.99677734 -11.51220703 49.19824219 C-9.19272552 45.82649347 -7.80897439 42.85876997 -7.14624023 38.81396484 C-7.00947372 37.99987152 -6.87270721 37.1857782 -6.73179626 36.34701538 C-6.59213943 35.47710968 -6.4524826 34.60720398 -6.30859375 33.7109375 C-6.158423 32.8113028 -6.00825226 31.91166809 -5.85353088 30.98477173 C-5.37542396 28.11581892 -4.90591115 25.24555045 -4.4375 22.375 C-3.96439989 19.4975144 -3.48944523 16.6203664 -3.01075745 13.74380493 C-2.71340202 11.95481565 -2.41946927 10.16525351 -2.1292572 8.37509155 C-1.11173191 2.22346383 -1.11173191 2.22346383 0 0 Z " fill="#293A35" transform="translate(1076,114)"/>
<path d="M0 0 C4 5.14285714 4 5.14285714 4 9 C1.86175784 10.70060743 -0.22089861 12.20205658 -2.5 13.6875 C-3.12003906 14.10322266 -3.74007812 14.51894531 -4.37890625 14.94726562 C-5.91315943 15.97403506 -7.45581929 16.98822225 -9 18 C-5.12626148 23.8878765 -1.14216327 29.67312126 3 35.375 C3.54744873 36.13232422 4.09489746 36.88964844 4.65893555 37.66992188 C7.7297148 41.90835225 10.82918892 46.12380986 13.95703125 50.3203125 C14.60091797 51.1860791 15.24480469 52.0518457 15.90820312 52.94384766 C17.16170343 54.62643076 18.41941284 56.30588766 19.68164062 57.98193359 C20.52952148 59.12009521 20.52952148 59.12009521 21.39453125 60.28125 C21.89831299 60.95220703 22.40209473 61.62316406 22.92114258 62.31445312 C24 64 24 64 24 66 C22.57421875 67.2890625 22.57421875 67.2890625 20.6875 68.625 C20.07261719 69.07101563 19.45773437 69.51703125 18.82421875 69.9765625 C17 71 17 71 14 71 C12.3978853 69.07622521 11.01521931 67.19568186 9.625 65.125 C8.73390942 63.8379621 7.841938 62.55153375 6.94921875 61.265625 C6.23644775 60.23018555 6.23644775 60.23018555 5.50927734 59.17382812 C2.86918316 55.37127254 0.15118543 51.62520934 -2.5625 47.875 C-3.11043213 47.11461426 -3.65836426 46.35422852 -4.22290039 45.57080078 C-8.21913647 40.0370005 -12.31172567 34.58627921 -16.48828125 29.1875 C-18 27 -18 27 -18 25 C-22.62 28.3 -27.24 31.6 -32 35 C-35.75559487 33.12220256 -36.92965108 32.41607572 -39 29 C-39 28.01 -39 27.02 -39 26 C-36.60344545 24.09441693 -34.22680438 22.38481573 -31.6875 20.6875 C-30.13515449 19.62598185 -28.58443675 18.56208029 -27.03515625 17.49609375 C-26.2167627 16.93390137 -25.39836914 16.37170898 -24.55517578 15.79248047 C-19.32392645 12.12270858 -14.2401896 8.24381993 -9.15893555 4.36987305 C-8.39750244 3.79922119 -7.63606934 3.22856934 -6.8515625 2.640625 C-6.17947754 2.13047852 -5.50739258 1.62033203 -4.81494141 1.09472656 C-3 0 -3 0 0 0 Z " fill="#2A3A35" transform="translate(421,116)"/>
<path d="M0 0 C5.74614209 3.40247751 10.03622706 8.12313129 12.5625 14.3125 C13.13092541 17.01252069 13.36852739 19.54839033 13.5625 22.3125 C11.5825 22.3125 9.6025 22.3125 7.5625 22.3125 C7.40394531 21.73242188 7.24539063 21.15234375 7.08203125 20.5546875 C5.43423141 15.03774438 3.70363865 11.35504011 -0.4375 7.3125 C-5.67799952 4.74949939 -10.70988984 4.6312424 -16.4375 5.3125 C-21.05380941 7.53822061 -23.11261124 9.83237653 -25.4375 14.3125 C-26.4017083 17.64150642 -26.4017083 17.64150642 -27.0625 21.1875 C-27.42214844 22.94707031 -27.42214844 22.94707031 -27.7890625 24.7421875 C-28.9196778 30.96738256 -29.65966712 37.04567596 -29.75 43.375 C-29.77900391 44.05626953 -29.80800781 44.73753906 -29.83789062 45.43945312 C-29.90186361 50.56221268 -28.68989657 53.40146398 -25.4375 57.3125 C-20.23874146 60.37059326 -15.3448189 61.15026523 -9.4375 60.3125 C-6.08588754 58.93035878 -6.08588754 58.93035878 -3.4375 57.3125 C-2.7775 57.3125 -2.1175 57.3125 -1.4375 57.3125 C0.52551592 53.80711443 1.52152388 50.17898272 2.5625 46.3125 C2.2325 46.3125 1.9025 46.3125 1.5625 46.3125 C1.5625 44.6625 1.5625 43.0125 1.5625 41.3125 C-3.37314344 39.66728552 -8.31574855 38.24372754 -13.4375 37.3125 C-13.1075 35.3325 -12.7775 33.3525 -12.4375 31.3125 C-4.8475 32.3025 2.7425 33.2925 10.5625 34.3125 C11.85144122 38.17932366 11.10651083 41.2271428 10.375 45.125 C10.26091797 45.82431641 10.14683594 46.52363281 10.02929688 47.24414062 C8.61667153 54.90960506 4.87615856 59.73200261 -1.4375 64.3125 C-7.91721344 67.92618634 -13.91649583 68.38539502 -21.0546875 66.69140625 C-28.61801015 64.1051637 -33.31797111 59.55155778 -36.875 52.4375 C-38.38980331 44.02192607 -37.13334654 35.66558102 -35.75 27.3125 C-35.60111328 26.29671875 -35.45222656 25.2809375 -35.29882812 24.234375 C-34.01395418 16.37396967 -31.99180848 8.7192043 -26.0859375 3.05859375 C-24.96058594 2.41083984 -24.96058594 2.41083984 -23.8125 1.75 C-22.67941406 1.06744141 -22.67941406 1.06744141 -21.5234375 0.37109375 C-15.06870706 -2.90462151 -6.57126651 -3.11006507 0 0 Z " fill="#2A3A35" transform="translate(675.4375,1124.6875)"/>
<path d="M0 0 C3.63 0.33 7.26 0.66 11 1 C11.08476704 8.44625427 10.80807987 15.72453947 10.125 23.13671875 C10.03621582 24.14217239 9.94743164 25.14762604 9.85595703 26.18354797 C9.57514765 29.35195321 9.28769536 32.51971338 9 35.6875 C8.80684943 37.85347623 8.61413713 40.0194916 8.421875 42.18554688 C7.95297595 47.45749366 7.47864171 52.72892929 7 58 C9.86447419 58.32261159 12.72907141 58.64405653 15.59375 58.96484375 C16.39780273 59.05552124 17.20185547 59.14619873 18.03027344 59.23962402 C23.35804657 59.83506506 28.68511745 60.34964623 34.03125 60.75390625 C36 61 36 61 38 62 C37.67 65.3 37.34 68.6 37 72 C22.970316 71.3268586 8.99167037 70.22387033 -5 69 C-6.09117095 65.72648715 -5.97085513 63.87372618 -5.67041016 60.4621582 C-5.57345856 59.32700272 -5.47650696 58.19184723 -5.37661743 57.02229309 C-5.2652243 55.79419418 -5.15383118 54.56609528 -5.0390625 53.30078125 C-4.929039 52.03662888 -4.8190155 50.7724765 -4.70565796 49.47001648 C-4.4713762 46.79066276 -4.23481771 44.11163572 -3.99414062 41.43286133 C-3.68738663 38.01848996 -3.38722384 34.60358433 -3.0897007 31.18839741 C-2.80415307 27.91316749 -2.51545523 24.63821759 -2.2265625 21.36328125 C-2.11921783 20.1453035 -2.01187317 18.92732574 -1.90127563 17.67243958 C-1.37122355 11.76434654 -0.78649467 5.87965996 0 0 Z " fill="#293B36" transform="translate(781,16)"/>
<path d="M0 0 C6.59964534 4.20293203 10.35250472 9.80519661 12.1640625 17.29296875 C12.80311323 25.20074881 8.3101297 32.69163692 4.5390625 39.35546875 C4.09844482 40.13744629 3.65782715 40.91942383 3.20385742 41.72509766 C-2.42446362 51.51851852 -7.6776672 59.71937865 -18.7734375 63.41796875 C-26.94063336 64.41836824 -33.53925272 62.02041099 -40.0859375 57.16796875 C-44.87881004 52.26363406 -47.49354983 46.69251666 -47.9140625 39.80078125 C-47.15790552 26.98812129 -36.22423756 10.92201738 -27.5078125 1.83203125 C-18.74440739 -5.31290715 -9.6088132 -5.31013361 0 0 Z M-25.0859375 8.48046875 C-30.73097738 15.31866479 -34.68381777 23.58830245 -38.7734375 31.41796875 C-39.32306152 32.46210937 -39.32306152 32.46210937 -39.88378906 33.52734375 C-41.66567103 37.31408743 -41.37079197 41.35230106 -40.7734375 45.41796875 C-39.11964273 49.48411705 -36.85859638 52.45682803 -33.5859375 55.35546875 C-27.97703006 57.47438934 -22.82917329 57.96616496 -17.0234375 56.41796875 C-9.91772921 52.04522519 -6.03801089 44.91021797 -2.0234375 37.79296875 C-1.54261719 36.96023438 -1.06179688 36.1275 -0.56640625 35.26953125 C3.44522336 28.25197304 6.34388353 22.66351508 5.2265625 14.41796875 C3.79483595 10.03705696 1.73030503 7.79330632 -1.9609375 5.04296875 C-10.33621979 0.90016316 -18.4040857 1.65843824 -25.0859375 8.48046875 Z " fill="#293A35" transform="translate(479.7734375,1054.58203125)"/>
<path d="M0 0 C2.66421509 0.0682373 2.66421509 0.0682373 3.66421509 1.0682373 C3.75292781 4.09801534 3.77940859 7.10490753 3.76187134 10.13464355 C3.76045639 11.04326645 3.75904144 11.95188934 3.75758362 12.88804626 C3.75196702 15.80230951 3.73941174 18.71649711 3.72671509 21.6307373 C3.72170222 23.60143932 3.71713895 25.57214254 3.71304321 27.54284668 C3.7019922 32.38467289 3.68471647 37.22644225 3.66421509 42.0682373 C2.00806851 42.45042498 0.33964484 42.78218832 -1.33578491 43.0682373 C-2.33578491 42.0682373 -2.33578491 42.0682373 -2.4493103 38.74182129 C-2.44915121 37.26598174 -2.44345805 35.79013662 -2.43344116 34.31433105 C-2.43202621 33.53888443 -2.43061127 32.76343781 -2.42915344 31.9644928 C-2.42353837 29.47820236 -2.41098338 26.9920007 -2.39828491 24.5057373 C-2.39327185 22.82409798 -2.38870861 21.14245724 -2.38461304 19.46081543 C-2.37441323 15.32989401 -2.35484096 11.19916549 -2.33578491 7.0682373 C-10.58578491 7.0682373 -18.83578491 7.0682373 -27.33578491 7.0682373 C-27.33578491 17.2982373 -27.33578491 27.5282373 -27.33578491 38.0682373 C-29.31578491 38.0682373 -31.29578491 38.0682373 -33.33578491 38.0682373 C-33.33578491 27.8382373 -33.33578491 17.6082373 -33.33578491 7.0682373 C-41.25578491 7.0682373 -49.17578491 7.0682373 -57.33578491 7.0682373 C-57.33578491 15.6482373 -57.33578491 24.2282373 -57.33578491 33.0682373 C-57.66578491 33.0682373 -57.99578491 33.0682373 -58.33578491 33.0682373 C-58.33578491 36.3682373 -58.33578491 39.6682373 -58.33578491 43.0682373 C-60.31578491 43.0682373 -62.29578491 43.0682373 -64.33578491 43.0682373 C-64.51038651 40.19354677 -64.67531253 37.31872885 -64.83578491 34.4432373 C-64.88348022 33.67366699 -64.93117554 32.90409668 -64.98031616 32.11120605 C-65.54122584 21.77444198 -65.38043261 11.41637087 -65.33578491 1.0682373 C-57.35562238 0.93727863 -49.37545145 0.80684866 -41.39526939 0.67708588 C-37.6894018 0.61680969 -33.98353732 0.55635424 -30.27767944 0.4954834 C-26.69857077 0.43670118 -23.11945458 0.37839731 -19.54033279 0.32041931 C-18.17765655 0.29826243 -16.81498305 0.27593578 -15.45231247 0.25343323 C-13.5376636 0.22184511 -11.62300372 0.19092707 -9.70834351 0.16003418 C-8.62024384 0.14226929 -7.53214417 0.12450439 -6.41107178 0.10620117 C-4.2739175 0.07981838 -2.13687007 0.04371213 0 0 Z " fill="#293B35" transform="translate(222.33578491210938,592.9317626953125)"/>
<path d="M0 0 C1.98 0 3.96 0 6 0 C8.94269614 5.71318279 11.51098705 11.47719263 13.8984375 17.44140625 C14.25588043 18.32674545 14.61332336 19.21208466 14.9815979 20.12425232 C16.11583285 22.93576359 17.24547548 25.7490935 18.375 28.5625 C19.12470086 30.42264663 19.87469856 32.28267366 20.625 34.14257812 C22.0786127 37.74749775 23.52863986 41.3538254 24.97558594 44.96142578 C26.26753088 48.18193621 27.56724142 51.39907069 28.87597656 54.61279297 C29.15913727 55.31129868 29.44229797 56.00980438 29.73403931 56.72947693 C30.48419423 58.57952634 31.23734082 60.42836192 31.99072266 62.27709961 C33 65 33 65 33 67 C30.69 67 28.38 67 26 67 C24.02 62.05 22.04 57.1 20 52 C15.545 52.495 15.545 52.495 11 53 C11 53.33 11 53.66 11 54 C4.4 54 -2.2 54 -9 54 C-10.13465154 56.26930308 -11.0588382 58.58113534 -12 60.9375 C-12.350625 61.81277344 -12.70125 62.68804688 -13.0625 63.58984375 C-13.75692052 65.37508317 -14.39425256 67.18275767 -15 69 C-17.31 69 -19.62 69 -22 69 C-19.8259573 60.63826157 -17.25891846 52.44087548 -14.55078125 44.23828125 C-14.12884385 42.95370748 -13.70715139 41.66905324 -13.28569031 40.38432312 C-12.18833102 37.04144423 -11.08770036 33.69965181 -9.98632812 30.35809326 C-8.85800461 26.93275245 -7.73285667 23.50636891 -6.60742188 20.08007812 C-4.40801253 13.38570885 -2.20513715 6.69248494 0 0 Z M3 9 C1.4297894 13.94677083 -0.13669636 18.89469951 -1.69970703 23.84375 C-2.23220656 25.52799499 -2.76573142 27.21191615 -3.30029297 28.89550781 C-4.06746428 31.31231094 -4.83096832 33.7302459 -5.59375 36.1484375 C-5.95466736 37.28132706 -5.95466736 37.28132706 -6.32287598 38.43710327 C-7.56205893 42.14636264 -7.56205893 42.14636264 -8 46 C0.58 46 9.16 46 18 46 C16.18934614 40.56803841 14.39722686 35.29886794 12.30078125 29.99609375 C12.0608696 29.38733902 11.82095795 28.77858429 11.57377625 28.15138245 C10.82223251 26.24587125 10.06743851 24.3416684 9.3125 22.4375 C8.79600607 21.12964332 8.27972841 19.82170121 7.76367188 18.51367188 C6.5112318 15.34160402 5.25662243 12.17041279 4 9 C3.67 9 3.34 9 3 9 Z " fill="#2A3A35" transform="translate(763,1130)"/>
<path d="M0 0 C4.43484221 3.43161152 6.93926062 7.26249161 7.91015625 12.8046875 C8.2296118 18.59481928 6.9545643 22.87180003 3.28125 27.3671875 C-0.72763456 31.57023456 -4.87857883 32.52620429 -10.52734375 32.9296875 C-15.43362093 32.69035691 -19.06912766 30.68657577 -22.625 27.375 C-26.21410391 23.33595012 -27.86348043 19.8042302 -28.46484375 14.4921875 C-27.87876024 8.72903299 -25.81204665 4.57343642 -21.77734375 0.4296875 C-14.60856653 -3.90492198 -7.32374813 -4.18891014 0 0 Z " fill="#2A3B35" transform="translate(317.08984375,249.1953125)"/>
<path d="M0 0 C5.8794105 0.64394127 11.04815075 2.76570338 16.515625 4.89453125 C17.52663269 5.28315842 18.53764038 5.67178558 19.57928467 6.07218933 C22.80492856 7.31365968 26.02744681 8.56303196 29.25 9.8125 C31.40214895 10.64178177 33.55449083 11.47056303 35.70703125 12.29882812 C46.48243627 16.45101267 46.48243627 16.45101267 50.32678223 17.96621704 C52.1657562 18.67738243 54.01630532 19.35909383 55.87536621 20.01596069 C57.23788513 20.51212387 57.23788513 20.51212387 58.62792969 21.01831055 C59.44477234 21.30441696 60.26161499 21.59052338 61.10321045 21.88529968 C63 23 63 23 63.81956482 24.95700073 C64.08073694 27.91415379 63.15105158 29.93903177 62.05078125 32.68359375 C61.61443359 33.77607422 61.17808594 34.86855469 60.72851562 35.99414062 C60.26123047 37.13044922 59.79394531 38.26675781 59.3125 39.4375 C58.86455078 40.56994141 58.41660156 41.70238281 57.95507812 42.86914062 C55.05439906 50.03428236 52.4046111 56.50025054 45.17578125 60.26171875 C39.50655826 62.18538688 33.71001679 62.04915835 28.14453125 59.89453125 C23.72889237 57.46169033 19.66636978 54.78371641 17.5703125 50.0625 C14.14535663 37.67635822 20.24781642 26.24220025 25 15 C24.27981689 14.87310791 23.55963379 14.74621582 22.81762695 14.61547852 C20.04417336 14.00964917 17.56350977 13.17485347 14.91796875 12.15234375 C13.98662109 11.79462891 13.05527344 11.43691406 12.09570312 11.06835938 C11.13599609 10.69517578 10.17628906 10.32199219 9.1875 9.9375 C8.20845703 9.56044922 7.22941406 9.18339844 6.22070312 8.79492188 C3.8123999 7.86684405 1.40558386 6.93509884 -1 6 C-0.67 4.02 -0.34 2.04 0 0 Z M30 18 C23.38598086 31.97338601 23.38598086 31.97338601 23 47 C25.37314144 51.3811842 28.34447443 53.331038 33 55 C36.82898734 55.69872032 40.32988878 55.92485015 43.81860352 53.99291992 C49.04610319 49.68930111 51.20162494 45.02981218 53.5 38.75 C54.03753906 37.38488281 54.03753906 37.38488281 54.5859375 35.9921875 C55.92577566 32.53871983 55.92577566 32.53871983 57 29 C55.58190397 26.16380793 53.90455975 25.97870534 50.9765625 24.8359375 C49.44515625 24.23652344 49.44515625 24.23652344 47.8828125 23.625 C46.80773437 23.2125 45.73265625 22.8 44.625 22.375 C43.55765625 21.95476562 42.4903125 21.53453125 41.390625 21.1015625 C35.85181832 18.79469573 35.85181832 18.79469573 30 18 Z " fill="#2A3A35" transform="translate(204,375)"/>
<path d="M0 0 C4.10796071 2.75654008 6.45151052 6.5080212 7.79296875 11.203125 C8.4667882 17.15519683 7.12169904 21.34745421 3.79296875 26.203125 C0.45838789 29.72924836 -2.75806073 31.9686082 -7.6953125 32.44140625 C-13.75359478 32.60061422 -17.50659589 32.4449813 -22.20703125 28.203125 C-25.57618016 24.55321368 -28.15683283 21.20945285 -28.2421875 16.09765625 C-27.79002874 9.51378357 -25.67237202 5.47882418 -20.76953125 0.953125 C-13.76333663 -3.83159327 -7.40934184 -4.07012202 0 0 Z " fill="#293B35" transform="translate(1200.20703125,248.796875)"/>
<path d="M0 0 C0.66 1.65 1.32 3.3 2 5 C0.10365447 6.20330491 -1.79332324 7.40559918 -3.69091797 8.60693359 C-5.37420441 9.67260897 -7.05680738 10.73936461 -8.73876953 11.80712891 C-13.3844067 14.74791375 -18.04993838 17.64669337 -22.76171875 20.48046875 C-23.69927002 21.04805908 -24.63682129 21.61564941 -25.6027832 22.20043945 C-27.41498853 23.29510404 -29.23236444 24.38126593 -31.05541992 25.45776367 C-36.61467536 28.82871596 -41.02094302 32.04188604 -44 38 C-44.55713132 43.95701945 -44.52180186 48.95208399 -41 54 C-37.27870737 57.74162756 -34.11644757 59.83719634 -28.75 60.25 C-20.79834991 59.71988999 -14.13097103 54.87631845 -7.4375 50.875 C-6.46893066 50.30185059 -5.50036133 49.72870117 -4.50244141 49.13818359 C-0.14197709 46.54278998 4.18361946 43.91850579 8.41015625 41.109375 C9.36716431 40.47346436 9.36716431 40.47346436 10.34350586 39.82470703 C12.01162786 38.70134791 13.66650181 37.55838628 15.3203125 36.4140625 C18 35 18 35 20.3671875 35.2734375 C20.90601563 35.51320313 21.44484375 35.75296875 22 36 C22.495 37.98 22.495 37.98 23 40 C14.46765162 45.58964937 5.82754416 50.99207621 -2.875 56.3125 C-3.84896729 56.91078613 -4.82293457 57.50907227 -5.82641602 58.12548828 C-23.1212729 68.65896918 -23.1212729 68.65896918 -34 67 C-40.94286046 64.44210404 -46.91530632 58.20424846 -50.16796875 51.64453125 C-51.95906415 45.9517069 -52.17103133 39.2307918 -50.125 33.5859375 C-44.84317333 24.58598285 -35.49814095 19.67511745 -26.75 14.5625 C-24.59808328 13.29445257 -22.44703492 12.02493031 -20.296875 10.75390625 C-19.25080078 10.13789551 -18.20472656 9.52188477 -17.12695312 8.88720703 C-13.09610477 6.45447298 -9.16650199 3.87899046 -5.25097656 1.26538086 C-3 0 -3 0 0 0 Z " fill="#2A3A35" transform="translate(292,861)"/>
<path d="M0 0 C2.18836629 1.51383457 3.99613075 3.06840563 5.66015625 5.1484375 C5.66015625 5.8084375 5.66015625 6.4684375 5.66015625 7.1484375 C2.97265625 8.3984375 2.97265625 8.3984375 -0.33984375 9.1484375 C-3.02734375 7.3359375 -3.02734375 7.3359375 -5.33984375 5.1484375 C-10.13107623 3.55136001 -14.85123738 3.11259271 -19.6015625 5.08984375 C-24.78120954 8.14401641 -27.37429062 11.11384196 -29.21484375 16.8984375 C-29.71944142 30.01797701 -18.19406667 44.55034543 -9.828125 53.82421875 C-6.42021087 56.8564573 -2.1400426 56.41956456 2.15625 56.36328125 C7.01034437 55.94678329 9.76582791 54.13944999 12.97265625 50.5859375 C15.82259541 46.46935871 15.76831951 44.04639645 15.72265625 39.0234375 C15.71363281 37.74210937 15.70460938 36.46078125 15.6953125 35.140625 C15.68371094 34.15320312 15.67210937 33.16578125 15.66015625 32.1484375 C17.64015625 31.4884375 19.62015625 30.8284375 21.66015625 30.1484375 C23.70395226 38.70093774 24.26052915 44.33293214 19.97265625 52.2734375 C15.24270935 58.15391203 10.3209493 62.64106003 2.57421875 63.484375 C-9.30474885 63.62545538 -9.30474885 63.62545538 -14.33984375 59.1484375 C-14.92507813 58.63152344 -15.5103125 58.11460938 -16.11328125 57.58203125 C-24.92650902 48.67887259 -35.47438407 33.49540202 -36.65234375 20.7734375 C-35.9443477 12.56068335 -32.53641626 6.59756352 -26.33984375 1.1484375 C-18.27998605 -4.26535371 -8.4421508 -4.88847336 0 0 Z " fill="#293A34" transform="translate(1050.33984375,1048.8515625)"/>
<path d="M0 0 C7.3809154 0.68967772 14.54243663 1.99810483 21.8046875 3.46875 C23.00562042 3.70911987 24.20655334 3.94948975 25.44387817 4.19714355 C27.96718405 4.70300761 30.49011795 5.21073036 33.01269531 5.72021484 C36.88258168 6.50153071 40.75367772 7.27661485 44.625 8.05078125 C47.08080231 8.54390669 49.53653403 9.03738388 51.9921875 9.53125 C53.15152802 9.76356323 54.31086853 9.99587646 55.50534058 10.23522949 C56.57720612 10.45215454 57.64907166 10.66907959 58.75341797 10.89257812 C59.69667938 11.08275513 60.6399408 11.27293213 61.61178589 11.46887207 C64 12 64 12 67 13 C66.67 16.63 66.34 20.26 66 24 C57.81953238 23.39612438 49.96349687 22.16390159 41.9296875 20.53125 C40.72684113 20.29088013 39.52399475 20.05051025 38.28469849 19.80285645 C35.7647626 19.29793909 33.24538869 18.79020951 30.7265625 18.27978516 C26.85300702 17.49554731 22.97746636 16.72175753 19.1015625 15.94921875 C16.64831447 15.45634115 14.19518499 14.96287303 11.7421875 14.46875 C9.99710403 14.12028015 9.99710403 14.12028015 8.21676636 13.76477051 C6.61842453 13.43938293 6.61842453 13.43938293 4.98779297 13.10742188 C4.04612274 12.91724487 3.10445251 12.72706787 2.13424683 12.53112793 C0 12 0 12 -1 11 C-0.91015699 9.14227838 -0.75388139 7.28752015 -0.5625 5.4375 C-0.46066406 4.42558594 -0.35882812 3.41367187 -0.25390625 2.37109375 C-0.17011719 1.58863281 -0.08632812 0.80617188 0 0 Z " fill="#293A35" transform="translate(1262,703)"/>
<path d="M0 0 C0.50337891 1.20309814 1.00675781 2.40619629 1.52539062 3.64575195 C3.43370594 8.20655088 5.34230345 12.76723166 7.25097656 17.32788086 C8.06941021 19.28357894 8.88777222 21.23930701 9.70605469 23.19506836 C15.12096936 36.13698053 20.54987753 49.07287331 26 62 C23.8614515 64.1385485 22.86724686 64.42655063 20 65 C16.99006292 59.14203678 14.33062844 53.21268347 11.8125 47.12890625 C11.42811768 46.20714096 11.04373535 45.28537567 10.64770508 44.3356781 C9.42914408 41.41238429 8.2143595 38.48754134 7 35.5625 C5.78502444 32.64129087 4.56922319 29.72042977 3.35229492 26.80003357 C2.5985806 24.99071834 1.84605932 23.18090546 1.0949707 21.37049866 C0.74781006 20.53610764 0.40064941 19.70171661 0.04296875 18.84204102 C-0.29041504 18.03719269 -0.62379883 17.23234436 -0.96728516 16.40310669 C-1.67341692 14.75995227 -2.41458392 13.13153252 -3.18505859 11.51754761 C-3.56098145 10.72792633 -3.9369043 9.93830505 -4.32421875 9.12475586 C-4.66928467 8.42611923 -5.01435059 7.7274826 -5.36987305 7.00767517 C-6.13160013 4.58070305 -5.94699094 3.3419927 -5 1 C-3 0 -3 0 0 0 Z " fill="#293A34" transform="translate(955,1088)"/>
<path d="M0 0 C0.495 2.97 0.495 2.97 1 6 C-5.88388604 8.8200686 -12.769067 11.63695065 -19.65586758 14.44989491 C-22.85445968 15.7564877 -26.0526144 17.0641287 -29.24975586 18.37426758 C-32.93471804 19.88425185 -36.62160846 21.38949328 -40.30859375 22.89453125 C-42.01069252 23.59314018 -42.01069252 23.59314018 -43.74717712 24.30586243 C-49.77501375 26.76192865 -55.79762429 29.0240472 -62 31 C-62.66 29.02 -63.32 27.04 -64 25 C-54.34589693 20.44175108 -44.46322731 16.48152573 -34.5625 12.5 C-32.12702532 11.51844239 -29.69183373 10.53618952 -27.25692749 9.55322266 C-25.68496656 8.91897536 -24.11256539 8.28581797 -22.53970337 7.65380859 C-19.11436014 6.27449426 -15.69811457 4.88223513 -12.30810547 3.41796875 C-11.2460791 2.96035156 -10.18405273 2.50273438 -9.08984375 2.03125 C-8.18999756 1.63486328 -7.29015137 1.23847656 -6.36303711 0.83007812 C-4 0 -4 0 0 0 Z " fill="#2A3A35" transform="translate(264,802)"/>
<path d="M0 0 C0.33 0 0.66 0 1 0 C1 32.67 1 65.34 1 99 C0.67 99 0.34 99 0 99 C0 66.33 0 33.66 0 0 Z " fill="#283A32" transform="translate(755,800)"/>
<path d="M0 0 C0.33 0 0.66 0 1 0 C1.33 30.69 1.66 61.38 2 93 C1.34 93 0.68 93 0 93 C0 62.31 0 31.62 0 0 Z " fill="#283B32" transform="translate(756,689)"/>
<path d="M0 0 C0.33 0 0.66 0 1 0 C1 29.7 1 59.4 1 90 C0.67 90 0.34 90 0 90 C0 60.3 0 30.6 0 0 Z " fill="#2A3A33" transform="translate(757,563)"/>
<path d="M0 0 C7.59 0 15.18 0 23 0 C23 11.22 23 22.44 23 34 C22.67 34 22.34 34 22 34 C22 23.11 22 12.22 22 1 C15.07 1 8.14 1 1 1 C1 10.24 1 19.48 1 29 C0.67 29 0.34 29 0 29 C0 19.43 0 9.86 0 0 Z " fill="#2B3A35" transform="translate(196,601)"/>
<path d="M0 0 C0.33 0 0.66 0 1 0 C1 26.73 1 53.46 1 81 C0.67 81 0.34 81 0 81 C0 54.27 0 27.54 0 0 Z " fill="#2A3A32" transform="translate(740,683)"/>
<path d="M0 0 C0.33 0 0.66 0 1 0 C1 26.07 1 52.14 1 79 C0.67 79 0.34 79 0 79 C0 52.93 0 26.86 0 0 Z " fill="#283B32" transform="translate(741,560)"/>
<path d="M0 0 C23.76 0 47.52 0 72 0 C72 0.33 72 0.66 72 1 C48.24 1 24.48 1 0 1 C0 0.67 0 0.34 0 0 Z " fill="#2D3935" transform="translate(1241,431)"/>
<path d="M0 0 C17.49 0 34.98 0 53 0 C53 0.33 53 0.66 53 1 C35.51 1 18.02 1 0 1 C0 0.67 0 0.34 0 0 Z " fill="#2C3935" transform="translate(158,592)"/>
<path d="M0 0 C6.93 0 13.86 0 21 0 C21 9.57 21 19.14 21 29 C20.67 29 20.34 29 20 29 C20 19.76 20 10.52 20 1 C13.4 1 6.8 1 0 1 C0 0.67 0 0.34 0 0 Z " fill="#2B3A35" transform="translate(167,601)"/>
<path d="M0 0 C0.33 0 0.66 0 1 0 C1 13.53 1 27.06 1 41 C0.67 41 0.34 41 0 41 C0 27.47 0 13.94 0 0 Z " fill="#2A3934" transform="translate(227,594)"/>
<path d="M0 0 C0.33 0 0.66 0 1 0 C1 11.22 1 22.44 1 34 C0.67 34 0.34 34 0 34 C0 22.78 0 11.56 0 0 Z " fill="#253C32" transform="translate(740,786)"/>
<path d="M0 0 C0.33 0.99 0.66 1.98 1 3 C7.6 3 14.2 3 21 3 C21.33 2.34 21.66 1.68 22 1 C22.33 1.99 22.66 2.98 23 4 C15.08 4 7.16 4 -1 4 C-0.67 2.68 -0.34 1.36 0 0 Z " fill="#2A3A34" transform="translate(757,1171)"/>
<path d="M0 0 C9.24 0 18.48 0 28 0 C28 0.33 28 0.66 28 1 C18.76 1 9.52 1 0 1 C0 0.67 0 0.34 0 0 Z " fill="#2A3C34" transform="translate(864,813)"/>
<path d="M0 0 C9.24 0 18.48 0 28 0 C28 0.33 28 0.66 28 1 C18.76 1 9.52 1 0 1 C0 0.67 0 0.34 0 0 Z " fill="#2B3A34" transform="translate(1304,651)"/>
<path d="M0 0 C9.24 0 18.48 0 28 0 C28 0.33 28 0.66 28 1 C18.76 1 9.52 1 0 1 C0 0.67 0 0.34 0 0 Z " fill="#2C3A35" transform="translate(1281,610)"/>
<path d="M0 0 C8.91 0 17.82 0 27 0 C27 0.33 27 0.66 27 1 C18.09 1 9.18 1 0 1 C0 0.67 0 0.34 0 0 Z " fill="#293B34" transform="translate(1273,650)"/>
<path d="M0 0 C8.58 0 17.16 0 26 0 C26 0.33 26 0.66 26 1 C17.42 1 8.84 1 0 1 C0 0.67 0 0.34 0 0 Z " fill="#283A34" transform="translate(1298,596)"/>
<path d="M0 0 C7.59 0 15.18 0 23 0 C23 0.33 23 0.66 23 1 C15.41 1 7.82 1 0 1 C0 0.67 0 0.34 0 0 Z " fill="#293B33" transform="translate(805,669)"/>
<path d="M0 0 C0.33 0 0.66 0 1 0 C1 7.59 1 15.18 1 23 C0.67 23 0.34 23 0 23 C0 15.41 0 7.82 0 0 Z " fill="#2A3933" transform="translate(921,567)"/>
<path d="M0 0 C7.26 0 14.52 0 22 0 C22 0.33 22 0.66 22 1 C14.74 1 7.48 1 0 1 C0 0.67 0 0.34 0 0 Z " fill="#2B3933" transform="translate(666,649)"/>
<path d="M0 0 C0.33 0.66 0.66 1.32 1 2 C-5.93 2 -12.86 2 -20 2 C-20 1.67 -20 1.34 -20 1 C-10.1 0.505 -10.1 0.505 0 0 Z " fill="#2A3B35" transform="translate(1282,416)"/>
<path d="M0 0 C6.93 0 13.86 0 21 0 C21 0.33 21 0.66 21 1 C14.07 1 7.14 1 0 1 C0 0.67 0 0.34 0 0 Z " fill="#283A32" transform="translate(782,668)"/>
<path d="M0 0 C6.93 0 13.86 0 21 0 C21 0.33 21 0.66 21 1 C14.07 1 7.14 1 0 1 C0 0.67 0 0.34 0 0 Z " fill="#293A33" transform="translate(605,519)"/>
<path d="M0 0 C2.91952568 0.01748219 5.72297885 0.13944633 8.625 0.375 C9.42679688 0.43171875 10.22859375 0.4884375 11.0546875 0.546875 C13.03715498 0.68847982 15.01869051 0.84302259 17 1 C17 1.33 17 1.66 17 2 C10.73 2 4.46 2 -2 2 C-1.34 1.34 -0.68 0.68 0 0 Z " fill="#293B35" transform="translate(1299,635)"/>
<path d="M0 0 C6.6 0 13.2 0 20 0 C20 0.33 20 0.66 20 1 C13.4 1 6.8 1 0 1 C0 0.67 0 0.34 0 0 Z " fill="#283B35" transform="translate(1273,595)"/>
<path d="M0 0 C0.33 0 0.66 0 1 0 C1 6.27 1 12.54 1 19 C0.67 19 0.34 19 0 19 C0 12.73 0 6.46 0 0 Z " fill="#283C36" transform="translate(156,617)"/>
<path d="M0 0 C0.33 0 0.66 0 1 0 C1 2.64 1 5.28 1 8 C4.3 8 7.6 8 11 8 C11 8.33 11 8.66 11 9 C7.37 9 3.74 9 0 9 C0 6.03 0 3.06 0 0 Z " fill="#2C3936" transform="translate(693,66)"/>
<path d="M0 0 C5.94 0 11.88 0 18 0 C18 0.33 18 0.66 18 1 C12.06 1 6.12 1 0 1 C0 0.67 0 0.34 0 0 Z " fill="#293A32" transform="translate(575,665)"/>
<path d="M0 0 C5.94 0 11.88 0 18 0 C18 0.33 18 0.66 18 1 C12.06 1 6.12 1 0 1 C0 0.67 0 0.34 0 0 Z " fill="#293A35" transform="translate(1321,637)"/>
<path d="M0 0 C0.33 0 0.66 0 1 0 C1 5.94 1 11.88 1 18 C0.67 18 0.34 18 0 18 C0 12.06 0 6.12 0 0 Z " fill="#2B3934" transform="translate(668,419)"/>
<path d="M0 0 C0.33 0 0.66 0 1 0 C1 5.61 1 11.22 1 17 C0.67 17 0.34 17 0 17 C0 11.39 0 5.78 0 0 Z " fill="#2C3936" transform="translate(834,419)"/>
<path d="M0 0 C0.33 0 0.66 0 1 0 C1 4.95 1 9.9 1 15 C0.67 15 0.34 15 0 15 C0 10.05 0 5.1 0 0 Z " fill="#2E3936" transform="translate(646,1160)"/>
<path d="M0 0 C0.33 0 0.66 0 1 0 C1 4.95 1 9.9 1 15 C0.67 15 0.34 15 0 15 C0 10.05 0 5.1 0 0 Z " fill="#293A34" transform="translate(578,555)"/>
<path d="M0 0 C4.62 0 9.24 0 14 0 C14 0.33 14 0.66 14 1 C9.38 1 4.76 1 0 1 C0 0.67 0 0.34 0 0 Z " fill="#293A32" transform="translate(898,679)"/>
<path d="M0 0 C4.62 0 9.24 0 14 0 C14 0.33 14 0.66 14 1 C9.38 1 4.76 1 0 1 C0 0.67 0 0.34 0 0 Z " fill="#293C36" transform="translate(876,529)"/>
<path d="M0 0 C0.33 0 0.66 0 1 0 C1 4.29 1 8.58 1 13 C0.67 13 0.34 13 0 13 C0 8.71 0 4.42 0 0 Z " fill="#2A3B34" transform="translate(739,886)"/>
<path d="M0 0 C0.33 0 0.66 0 1 0 C1 4.29 1 8.58 1 13 C0.67 13 0.34 13 0 13 C0 8.71 0 4.42 0 0 Z " fill="#2B3A34" transform="translate(522,703)"/>
<path d="M0 0 C0.33 0 0.66 0 1 0 C1 4.29 1 8.58 1 13 C0.67 13 0.34 13 0 13 C0 8.71 0 4.42 0 0 Z " fill="#2A3A36" transform="translate(155,595)"/>
<path d="M0 0 C4.29 0 8.58 0 13 0 C13 0.33 13 0.66 13 1 C8.71 1 4.42 1 0 1 C0 0.67 0 0.34 0 0 Z " fill="#2F3936" transform="translate(1281,542)"/>
<path d="M0 0 C0.33 0 0.66 0 1 0 C1 2.97 1 5.94 1 9 C1.99 9.33 2.98 9.66 4 10 C2.68 10 1.36 10 0 10 C0 6.7 0 3.4 0 0 Z " fill="#2B3A36" transform="translate(789,64)"/>
<path d="M0 0 C3.96 0 7.92 0 12 0 C12 0.33 12 0.66 12 1 C8.04 1 4.08 1 0 1 C0 0.67 0 0.34 0 0 Z " fill="#283A34" transform="translate(918,679)"/>
<path d="M0 0 C0.33 0 0.66 0 1 0 C1 3.96 1 7.92 1 12 C0.67 12 0.34 12 0 12 C0 8.04 0 4.08 0 0 Z " fill="#233E32" transform="translate(741,667)"/>
<path d="M0 0 C3.96 0 7.92 0 12 0 C12 0.33 12 0.66 12 1 C8.04 1 4.08 1 0 1 C0 0.67 0 0.34 0 0 Z " fill="#293A33" transform="translate(597,666)"/>
<path d="M0 0 C3.63 0 7.26 0 11 0 C11 0.33 11 0.66 11 1 C7.37 1 3.74 1 0 1 C0 0.67 0 0.34 0 0 Z " fill="#2A3B36" transform="translate(659,1121)"/>
<path d="M0 0 C3.63 0 7.26 0 11 0 C11 0.33 11 0.66 11 1 C7.37 1 3.74 1 0 1 C0 0.67 0 0.34 0 0 Z " fill="#2C3834" transform="translate(1044,1113)"/>
<path d="M0 0 C0.33 0 0.66 0 1 0 C1 3.63 1 7.26 1 11 C0.67 11 0.34 11 0 11 C0 7.37 0 3.74 0 0 Z " fill="#2E3936" transform="translate(1065,1084)"/>
<path d="M0 0 C3.63 0 7.26 0 11 0 C11 0.33 11 0.66 11 1 C7.37 1 3.74 1 0 1 C0 0.67 0 0.34 0 0 Z " fill="#2D3A36" transform="translate(259,929)"/>
<path d="M0 0 C3.63 0 7.26 0 11 0 C11 0.33 11 0.66 11 1 C7.37 1 3.74 1 0 1 C0 0.67 0 0.34 0 0 Z " fill="#283B32" transform="translate(742,902)"/>
<path d="M0 0 C0.33 0 0.66 0 1 0 C1 3.63 1 7.26 1 11 C0.67 11 0.34 11 0 11 C0 7.37 0 3.74 0 0 Z " fill="#2A3A36" transform="translate(239,898)"/>
<path d="M0 0 C3.63 0 7.26 0 11 0 C11 0.33 11 0.66 11 1 C7.37 1 3.74 1 0 1 C0 0.67 0 0.34 0 0 Z " fill="#2A3A36" transform="translate(609,800)"/>
<path d="M0 0 C3.63 0 7.26 0 11 0 C11 0.33 11 0.66 11 1 C7.37 1 3.74 1 0 1 C0 0.67 0 0.34 0 0 Z " fill="#2A3C34" transform="translate(625,799)"/>
<path d="M0 0 C0.33 0 0.66 0 1 0 C1 3.63 1 7.26 1 11 C0.67 11 0.34 11 0 11 C0 7.37 0 3.74 0 0 Z " fill="#2C3935" transform="translate(1340,639)"/>
<path d="M0 0 C0.33 0 0.66 0 1 0 C1 3.63 1 7.26 1 11 C0.67 11 0.34 11 0 11 C0 7.37 0 3.74 0 0 Z " fill="#2C3834" transform="translate(1270,597)"/>
</svg>